v -2.0 2.0 0.02
v -1.375 2.0 0.02
v -1.375 1.61 0.02
newmtl 1
Ka 0.2235294117647059 0.2235294117647059 0.2235294117647059
Kd 0.2235294117647059 0.2235294117647059 0.2235294117647059
Ks 0.11372549019607843 0.11372549019607843 0.11372549019607843
d 0.0
endmtl
v 1.35 -1.35 0.02
v 1.35 1.35 0.02
v 1.61 0.625 0.02
v 1.61 0.875 0.02
v -1.125 2.0 0.02
v -0.875 2.0 0.02
v -1.125 1.61 0.02
v -0.875 1.61 0.02
v -1.35 1.35 0.02
v -0.625 1.61 0.02
v -0.125 1.61 0.02
v -0.125 2.0 0.02
v 0.125 2.0 0.02
v 2.0 0.625 0.02
v 2.0 0.375 0.02
v 1.61 0.375 0.02
v 1.61 0.125 0.02
v 0.125 1.61 0.02
v 0.375 1.61 0.02
v 2.0 0.125 0.02
v 2.0 -0.125 0.02
v 1.61 -0.125 0.02
v 1.61 -0.375 0.02
v 2.0 -0.375 0.02
v 2.0 -0.625 0.02
v 1.61 -0.625 0.02
v 1.61 -0.875 0.02
v -0.375 1.61 0.02
v -0.375 2.0 0.02
v -0.625 2.0 0.02
v 0.875 1.61 0.02
v 0.875 2.0 0.02
v 1.125 2.0 0.02
v 2.0 -0.875 0.02
v 2.0 -1.125 0.02
v 1.61 -1.125 0.02
v 1.61 -1.375 0.02
v 2.0 -2.0 0.02
v 1.375 -2.0 0.02
v 1.375 -1.61 0.02
v 1.61 1.125 0.02
v 2.0 1.125 0.02
v 2.0 0.875 0.02
v 1.125 1.61 0.02
v 1.375 1.61 0.02
v 2.0 2.0 0.02
v 2.0 1.375 0.02
v 1.61 1.375 0.02
v 1.125 -2.0 0.02
v 0.875 -2.0 0.02
v 1.125 -1.61 0.02
v 0.875 -1.61 0.02
v 1.375 2.0 0.02
v 2.0 -1.375 0.02
v -1.05 -1.35 0.02
v 0.625 -1.61 0.02
v 0.625 1.61 0.02
v 0.625 2.0 0.02
v 0.375 2.0 0.02
v 0.125 -1.61 0.02
v 0.125 -2.0 0.02
v -0.125 -2.0 0.02
v -0.125 -1.61 0.02
v -0.375 -1.61 0.02
v 0.375 -1.61 0.02
v 0.375 -2.0 0.02
v 0.625 -2.0 0.02
v -0.875 -2.0 0.02
v -1.125 -2.0 0.02
v -0.875 -1.61 0.02
v -1.125 -1.61 0.02
v -2.0 -0.625 0.02
v -2.0 -0.375 0.02
v -1.61 -0.625 0.02
v -1.61 -0.375 0.02
v -2.0 -2.0 0.02
v -2.0 -1.375 0.02
v -1.61 -1.375 0.02
v -1.61 -0.875 0.02
v -1.35 -1.05 0.02
v -1.61 -0.125 0.02
v -2.0 -1.125 0.02
v -2.0 -0.875 0.02
v -1.61 -1.125 0.02
v -1.375 -1.61 0.02
v -1.375 -2.0 0.02
v -1.61 0.375 0.02
v -2.0 0.375 0.02
v -2.0 0.625 0.02
v -0.375 -2.0 0.02
v -0.625 -2.0 0.02
v -0.625 -1.61 0.02
v -1.61 0.625 0.02
v -1.61 0.875 0.02
v -1.61 0.125 0.02
v -2.0 0.125 0.02
v -2.0 -0.125 0.02
v -2.0 1.375 0.02
v -1.61 1.375 0.02
v -1.61 1.125 0.02
v -2.0 1.125 0.02
v -2.0 0.875 0.02
v 1.139202 1.557201 0.92
v 1.139202 1.467106 0.92
v 1.179701 1.467106 0.92
v 1.393969 1.366821 0.92
v 1.364995 1.293337 0.92
v 1.400831 1.293337 0.92
v 1.299722 1.29383 0.92
v 1.295545 1.293337 0.92
v 1.320939 1.293337 0.92
v 1.221187 1.557127 0.92
v 1.228847 1.558059 0.92
v 1.188409 1.558059 0.92
v 0.780011 1.378363 0.92
v 0.792639 1.366864 0.92
v 0.821965 1.382184 0.92
v 0.586633 1.443069 0.92
v 0.591789 1.454655 0.92
v -0.258079 1.454655 0.92
v 1.020672 1.454655 0.92
v 1.084435 1.454655 0.92
v 1.015912 1.461293 0.92
v 1.084435 1.558059 0.92
v 0.996308 1.477885 0.92
v 0.904937 1.565929 0.92
v 0.916197 1.558059 0.92
v 0.932176 1.546889 0.92
v 0.957735 1.516726 0.92
v 0.971218 1.489773 0.92
v 0.974795 1.488569 0.92
v 0.802227 1.581057 0.92
v 0.833849 1.584485 0.92
v 1.084435 2.0 0.92
v 0.86916 1.580076 0.92
v 0.768619 1.569209 0.92
v -0.258079 2.0 0.92
v 0.75004 1.558059 0.92
v -0.258079 1.558059 0.92
v 0.74709 1.556288 0.92
v 0.598206 1.469076 0.92
v 0.615505 1.491219 0.92
v 0.67049 1.522485 0.92
v 0.69865 1.525923 0.92
v 0.7301 1.541738 0.92
v 0.706964 1.525471 0.92
v 0.715278 1.524477 0.92
v 0.620644 1.496069 0.92
v 0.643686 1.512167 0.92
v -0.258079 1.382184 0.92
v 0.581525 1.408798 0.92
v 0.581739 1.415901 0.92
v 0.633881 1.311129 0.92
v 0.61189 1.329991 0.92
v -0.258079 1.293337 0.92
v 0.659927 1.298251 0.92
v 0.595231 1.353844 0.92
v 0.584948 1.380777 0.92
v 0.584777 1.382184 0.92
v 0.66973 1.295288 0.92
v 0.670642 1.293337 0.92
v 0.676975 1.279783 0.92
v 0.687726 1.266512 0.92
v 0.76835 1.253055 0.92
v 0.755905 1.248277 0.92
v 1.084435 -2.0 0.92
v 0.738414 1.246124 0.92
v -0.258079 -2.0 0.92
v 0.735618 1.246176 0.92
v 0.718548 1.24884 0.92
v -0.258079 1.253055 0.92
v 0.70852 1.253055 0.92
v 0.701868 1.255851 0.92
v 0.806164 1.293337 0.92
v 0.806105 1.293087 0.92
v 1.084435 1.253055 0.92
v 0.797559 1.276968 0.92
v 0.786432 1.264487 0.92
v 0.77203 1.254468 0.92
v 1.084435 1.382184 0.92
v 1.041138 1.382184 0.92
v 1.039472 1.369237 0.92
v 0.898477 1.335989 0.92
v 0.903438 1.337948 0.92
v 0.911933 1.379155 0.92
v 1.016044 1.326376 0.92
v 0.996362 1.309718 0.92
v 1.084435 1.293337 0.92
v 0.894031 1.332837 0.92
v 0.909041 1.338667 0.92
v 0.909744 1.338616 0.92
v 0.911913 1.338136 0.92
v 1.030385 1.34635 0.92
v 0.886628 1.316254 0.92
v 0.886811 1.319108 0.92
v 0.810714 1.325653 0.92
v 0.888263 1.32461 0.92
v 0.891044 1.329543 0.92
v 0.983299 1.356103 0.92
v 0.991252 1.367381 0.92
v 0.903522 1.294498 0.92
v 0.898739 1.296381 0.92
v 0.89405 1.299714 0.92
v 0.89237 1.301425 0.92
v 0.889218 1.305966 0.92
v 0.887314 1.310869 0.92
v 0.810326 1.310938 0.92
v 0.810714 1.318423 0.92
v 0.974301 1.298925 0.92
v 0.950251 1.293842 0.92
v 0.907595 1.293842 0.92
v 0.913379 1.337944 0.92
v 0.945913 1.337944 0.92
v 0.958867 1.340423 0.92
v 0.971627 1.346328 0.92
v 0.982321 1.355053 0.92
v 0.74722 1.390923 0.92
v 0.764671 1.386588 0.92
v 0.93493 1.454655 0.92
v 0.738414 1.391446 0.92
v 0.996234 1.380266 0.92
v 0.996471 1.382184 0.92
v 0.910161 1.382184 0.92
v 0.997969 1.394338 0.92
v 0.997618 1.400645 0.92
v 0.721164 1.389322 0.92
v 0.642928 1.454655 0.92
v 0.705194 1.383216 0.92
v 0.635417 1.44386 0.92
v 0.629226 1.427734 0.92
v 0.63289 1.382184 0.92
v 0.703707 1.382184 0.92
v 0.627932 1.399138 0.92
v 0.627073 1.410244 0.92
v 0.979151 1.43635 0.92
v 0.967937 1.444179 0.92
v 0.994229 1.414533 0.92
v 0.987511 1.427011 0.92
v 0.935791 1.450731 0.92
v 0.88952 1.417474 0.92
v 0.941575 1.450731 0.92
v 0.955318 1.449037 0.92
v 0.772885 1.382184 0.92
v 0.633108 1.38144 0.92
v 0.678453 1.359285 0.92
v 0.690409 1.372949 0.92
v 0.641742 1.36674 0.92
v 0.654706 1.353425 0.92
v 0.670453 1.343728 0.92
v 0.920231 1.494127 0.92
v 0.903931 1.513616 0.92
v 0.737691 1.471698 0.92
v 0.902063 1.515318 0.92
v 0.881748 1.529412 0.92
v 0.748729 1.494556 0.92
v 0.732488 1.474541 0.92
v 0.931378 1.470828 0.92
v 0.716275 1.480455 0.92
v 0.699373 1.482543 0.92
v 0.691887 1.482155 0.92
v 0.764942 1.513931 0.92
v 0.859075 1.538095 0.92
v 0.784349 1.528111 0.92
v 0.834572 1.541105 0.92
v 0.80797 1.537681 0.92
v 0.674036 1.477935 0.92
v 0.657917 1.469389 0.92
v 0.645437 1.458261 0.92
v 1.030663 1.440721 0.92
v 1.039494 1.418638 0.92
v 1.042794 1.395061 0.92
v 1.558924 1.370055 0.92
v 1.562688 1.360359 0.92
v 1.603539 1.382184 0.92
v 1.552627 1.378918 0.92
v 1.64702 1.294194 0.92
v 1.47199 1.293337 0.92
v 1.661525 1.294194 0.92
v 2.0 1.293337 0.92
v 1.628011 1.382184 0.92
v 2.0 1.382184 0.92
v 1.622794 1.395883 0.92
v 1.556609 1.317438 0.92
v 1.549049 1.308439 0.92
v 1.570026 1.294194 0.92
v 1.538437 1.300829 0.92
v 1.526847 1.2963 0.92
v 1.509564 1.294194 0.92
v 1.58453 1.294194 0.92
v 1.594304 1.322008 0.92
v 1.636648 1.322008 0.92
v 1.564385 1.346338 0.92
v 1.56408 1.339861 0.92
v 1.561616 1.327956 0.92
v 1.481594 1.294194 0.92
v 1.481594 1.382184 0.92
v 1.47199 1.382184 0.92
v 1.481594 1.395883 0.92
v 1.47199 1.454655 0.92
v 1.510604 1.395883 0.92
v 1.52613 1.394168 0.92
v 2.0 1.454655 0.92
v 1.608757 1.395883 0.92
v 1.538403 1.389685 0.92
v 1.549049 1.382418 0.92
v 1.549288 1.382184 0.92
v 1.139202 1.382184 0.92
v 1.139202 1.351641 0.92
v 1.182313 1.382184 0.92
v 1.175568 1.351641 0.92
v 1.139202 1.339996 0.92
v 1.139202 1.305788 0.92
v 1.175568 1.339996 0.92
v 1.180766 1.305788 0.92
v 1.182313 1.293337 0.92
v 1.180766 1.294194 0.92
v 1.126075 1.294194 0.92
v 1.126075 1.395883 0.92
v 1.126075 1.382184 0.92
v 1.139202 1.384185 0.92
v 1.178453 1.384185 0.92
v 1.178453 1.395883 0.92
v 1.182313 1.454655 0.92
v 1.509304 1.483326 0.92
v 1.47199 1.483326 0.92
v 1.519676 1.455513 0.92
v 1.53418 1.455513 0.92
v 1.495449 1.557201 0.92
v 2.0 1.558059 0.92
v 1.47199 1.558059 0.92
v 1.46696 1.483326 0.92
v 1.457186 1.455513 0.92
v 1.439861 1.454655 0.92
v 1.442682 1.455513 0.92
v 1.439861 1.558059 0.92
v 1.47199 1.532462 0.92
v 1.481412 1.557201 0.92
v 1.320939 1.501314 0.92
v 1.293476 1.501314 0.92
v 1.320939 1.467106 0.92
v 1.293476 1.467106 0.92
v 1.344645 1.558059 0.92
v 1.320939 1.558059 0.92
v 1.332727 1.557201 0.92
v 1.320939 1.557201 0.92
v 1.329842 1.501314 0.92
v 1.335041 1.467106 0.92
v 1.329842 1.512959 0.92
v 1.332727 1.545504 0.92
v 1.320939 1.512959 0.92
v 1.320939 1.545504 0.92
v 1.293476 1.545504 0.92
v 1.293476 1.512959 0.92
v 1.280349 1.455513 0.92
v 1.274462 1.454655 0.92
v 1.320939 1.454655 0.92
v 1.344645 1.454655 0.92
v 1.335041 1.455513 0.92
v 1.320939 1.455513 0.92
v 1.280349 1.557201 0.92
v 1.274462 1.558059 0.92
v 1.246817 1.558059 0.92
v 1.249215 1.55787 0.92
v 1.259996 1.554758 0.92
v 1.259996 1.541033 0.92
v 1.259996 1.472305 0.92
v 1.259996 1.459724 0.92
v 1.258261 1.458859 0.92
v 1.247344 1.455279 0.92
v 1.240818 1.454655 0.92
v 1.248549 1.545569 0.92
v 1.23603 1.547063 0.92
v 1.258864 1.541644 0.92
v 1.230941 1.546797 0.92
v 1.222252 1.544871 0.92
v 1.214368 1.540927 0.92
v 1.20832 1.535782 0.92
v 1.207646 1.535044 0.92
v 1.202727 1.527981 0.92
v 1.199317 1.519204 0.92
v 1.197637 1.505213 0.92
v 1.197831 1.500268 0.92
v 1.19964 1.490364 0.92
v 1.238487 1.465671 0.92
v 1.249989 1.467811 0.92
v 1.216307 1.469505 0.92
v 1.223562 1.466715 0.92
v 1.233742 1.465494 0.92
v 1.203092 1.482323 0.92
v 1.207618 1.476204 0.92
v 1.209654 1.474194 0.92
v 1.2359 1.558917 0.92
v 1.188409 2.0 0.92
v 1.274462 2.0 0.92
v 1.191175 1.534314 0.92
v 1.198546 1.543944 0.92
v 1.201045 1.54633 0.92
v 1.210563 1.553001 0.92
v 1.182313 1.558059 0.92
v 1.186345 1.523018 0.92
v 1.188409 1.527845 0.92
v 1.188409 1.481362 0.92
v 1.185871 1.487858 0.92
v 1.18386 1.504433 0.92
v 1.184039 1.509743 0.92
v 1.214678 1.456359 0.92
v 1.205082 1.460886 0.92
v 1.188409 1.454655 0.92
v 1.196909 1.467678 0.92
v 1.196087 1.468575 0.92
v 1.190015 1.477252 0.92
v 1.222945 1.454655 0.92
v 1.188409 1.382184 0.92
v 1.225697 1.454088 0.92
v 1.231845 1.453797 0.92
v 1.274462 1.382184 0.92
v 1.434272 1.489274 0.92
v 1.429264 1.478757 0.92
v 1.400831 1.558059 0.92
v 1.400831 1.554739 0.92
v 1.411059 1.551003 0.92
v 1.400831 1.458138 0.92
v 1.400831 1.454655 0.92
v 1.411093 1.462147 0.92
v 1.421704 1.469757 0.92
v 1.421704 1.543736 0.92
v 1.425283 1.540237 0.92
v 1.43158 1.531373 0.92
v 1.435344 1.521677 0.92
v 1.437041 1.507657 0.92
v 1.436736 1.50118 0.92
v 1.383259 1.557201 0.92
v 1.398786 1.555486 0.92
v 1.399503 1.457619 0.92
v 1.38222 1.455513 0.92
v 1.35425 1.455513 0.92
v 1.35425 1.557201 0.92
v 1.228107 1.295271 0.92
v 1.223064 1.293337 0.92
v 1.238577 1.294194 0.92
v 1.200054 1.349353 0.92
v 1.200054 1.361727 0.92
v 1.228179 1.357687 0.92
v 1.223865 1.358139 0.92
v 1.217054 1.337344 0.92
v 1.231198 1.297241 0.92
v 1.208369 1.293364 0.92
v 1.203485 1.295205 0.92
v 1.188409 1.293337 0.92
v 1.197724 1.328379 0.92
v 1.201458 1.331818 0.92
v 1.206594 1.33464 0.92
v 1.208821 1.354868 0.92
v 1.216798 1.357458 0.92
v 1.199196 1.298197 0.92
v 1.197798 1.299611 0.92
v 1.195145 1.303515 0.92
v 1.238577 1.305424 0.92
v 1.238239 1.305424 0.92
v 1.235342 1.301239 0.92
v 1.193597 1.307813 0.92
v 1.192958 1.313638 0.92
v 1.193545 1.319578 0.92
v 1.195089 1.324241 0.92
v 1.272265 1.335733 0.92
v 1.270605 1.338385 0.92
v 1.251314 1.340931 0.92
v 1.2692 1.342274 0.92
v 1.250088 1.351563 0.92
v 1.268652 1.347222 0.92
v 1.238577 1.34036 0.92
v 1.238134 1.345991 0.92
v 1.236817 1.350527 0.92
v 1.23532 1.35315 0.92
v 1.233682 1.367589 0.92
v 1.238824 1.365838 0.92
v 1.273032 1.359313 0.92
v 1.242899 1.363307 0.92
v 1.274349 1.333553 0.92
v 1.268574 1.309895 0.92
v 1.274462 1.333479 0.92
v 1.273915 1.30663 0.92
v 1.274462 1.306431 0.92
v 1.202683 1.36325 0.92
v 1.212155 1.36692 0.92
v 1.22506 1.368485 0.92
v 1.269153 1.351769 0.92
v 1.270668 1.35587 0.92
v 1.248 1.357044 0.92
v 1.245312 1.36099 0.92
v 1.233395 1.355198 0.92
v 1.231134 1.356655 0.92
v 1.223022 1.29332 0.92
v 1.274462 1.253055 0.92
v 1.188409 1.253055 0.92
v 1.215988 1.292479 0.92
v 1.208601 1.293337 0.92
v 1.268574 1.296742 0.92
v 1.251314 1.294194 0.92
v 1.274462 1.294547 0.92
v 1.274462 1.293337 0.92
v 1.276072 1.293947 0.92
v 1.281147 1.293337 0.92
v 1.288277 1.292479 0.92
v 1.320939 1.382184 0.92
v 1.314141 1.365262 0.92
v 1.314141 1.352889 0.92
v 1.313362 1.325959 0.92
v 1.315739 1.32245 0.92
v 1.276814 1.362714 0.92
v 1.281155 1.365245 0.92
v 1.274462 1.360599 0.92
v 1.317098 1.318695 0.92
v 1.317625 1.31395 0.92
v 1.317019 1.308832 0.92
v 1.315455 1.304796 0.92
v 1.313081 1.301436 0.92
v 1.288295 1.367628 0.92
v 1.296933 1.368485 0.92
v 1.305869 1.367692 0.92
v 1.309437 1.298249 0.92
v 1.306435 1.296407 0.92
v 1.295686 1.358139 0.92
v 1.291915 1.357857 0.92
v 1.281779 1.348366 0.92
v 1.288508 1.356955 0.92
v 1.285652 1.355436 0.92
v 1.281895 1.346671 0.92
v 1.2824 1.344693 0.92
v 1.283318 1.342974 0.92
v 1.28456 1.341607 0.92
v 1.289051 1.3388 0.92
v 1.303598 1.357293 0.92
v 1.296933 1.335369 0.92
v 1.310825 1.354759 0.92
v 1.301865 1.333373 0.92
v 1.310325 1.328669 0.92
v 1.28373 1.353738 0.92
v 1.282638 1.352117 0.92
v 1.282009 1.350397 0.92
v 1.281919 1.303721 0.92
v 1.28794 1.326115 0.92
v 1.280347 1.329595 0.92
v 1.289525 1.302876 0.92
v 1.290088 1.30288 0.92
v 1.296303 1.322612 0.92
v 1.296617 1.303612 0.92
v 1.30455 1.312702 0.92
v 1.304425 1.314286 0.92
v 1.299904 1.304814 0.92
v 1.301065 1.305519 0.92
v 1.302527 1.306816 0.92
v 1.303638 1.308461 0.92
v 1.304286 1.310272 0.92
v 1.303846 1.316275 0.92
v 1.302862 1.317964 0.92
v 1.301274 1.319616 0.92
v 1.357473 1.312234 0.92
v 1.359033 1.306255 0.92
v 1.359371 1.306255 0.92
v 1.400831 1.382184 0.92
v 1.344645 1.382184 0.92
v 1.380764 1.366821 0.92
v 1.344645 1.349137 0.92
v 1.36093 1.31213 0.92
v 1.359956 1.308744 0.92
v 1.344645 1.293337 0.92
v 1.344645 1.314948 0.92
v 1.324253 1.366821 0.92
v 1.338498 1.366821 0.92
v 1.352742 1.29435 0.92
v 1.352313 1.293337 0.92
v 1.347154 1.281145 0.92
v 1.320939 1.253055 0.92
v 1.326878 1.261026 0.92
v 1.326878 1.272359 0.92
v 1.342233 1.273866 0.92
v 1.344606 1.276496 0.92
v 1.344645 1.276567 0.92
v 1.329484 1.271505 0.92
v 1.334105 1.270904 0.92
v 1.344645 1.262257 0.92
v 1.340238 1.260578 0.92
v 1.344645 1.253055 0.92
v 1.335093 1.259986 0.92
v 1.332281 1.260087 0.92
v 1.337376 1.271299 0.92
v 1.340142 1.272395 0.92
v 1.361009 1.283225 0.92
v 1.355242 1.271995 0.92
v 1.400831 1.253055 0.92
v 1.350582 1.266398 0.92
v 1.349713 1.265602 0.92
v 1.345264 1.262493 0.92
v 1.420821 1.339996 0.92
v 1.420821 1.305788 0.92
v 1.439861 1.305788 0.92
v 1.462385 1.305788 0.92
v 1.462385 1.294194 0.92
v 1.439861 1.293337 0.92
v 1.457186 1.339996 0.92
v 1.439861 1.339996 0.92
v 1.420821 1.382184 0.92
v 1.420821 1.351641 0.92
v 1.439861 1.351641 0.92
v 1.420821 1.384185 0.92
v 1.439861 1.382184 0.92
v 1.457186 1.351641 0.92
v 1.407694 1.294194 0.92
v 1.407694 1.382184 0.92
v 1.407694 1.395883 0.92
v 1.439861 1.294194 0.92
v 1.320939 2.0 0.92
v 1.344645 2.0 0.92
v 1.400831 2.0 0.92
v 1.439861 2.0 0.92
v 1.47199 2.0 0.92
v 2.0 2.0 0.92
v 1.182313 2.0 0.92
v 1.126075 1.455513 0.92
v 1.126075 1.557201 0.92
v 1.179701 1.455513 0.92
v 1.439861 1.395883 0.92
v 1.460071 1.395883 0.92
v 1.460071 1.384185 0.92
v 1.439861 1.384185 0.92
v 1.439861 1.253055 0.92
v 1.47199 1.253055 0.92
v 2.0 1.253055 0.92
v 1.182313 1.253055 0.92
v 1.182313 -2.0 0.92
v 1.188409 -2.0 0.92
v 1.274462 -2.0 0.92
v 1.320939 -2.0 0.92
v 1.344645 -2.0 0.92
v 1.400831 -2.0 0.92
v 1.439861 -2.0 0.92
v 1.47199 -2.0 0.92
v 2.0 -2.0 0.92
v -1.097683 -1.329199 0.92
v -1.104157 -1.378369 0.92
v -1.123136 -1.424188 0.92
v -1.153327 -1.463534 0.92
v -1.287662 -1.139221 0.92
v -1.238492 -1.145694 0.92
v -1.192672 -1.164673 0.92
v -1.336831 -1.512704 0.92
v -1.382651 -1.493725 0.92
v -2.0 -2.0 0.92
v -1.421996 -1.463534 0.92
v -1.452188 -1.424188 0.92
v -1.471166 -1.378369 0.92
v -1.47764 -1.329199 0.92
v -2.0 1.253055 0.92
v -1.471166 -1.280029 0.92
v -1.452188 -1.23421 0.92
v -1.421996 -1.194864 0.92
v -1.382651 -1.164673 0.92
v -1.336831 -1.145694 0.92
v -1.153327 -1.194864 0.92
v -1.123136 -1.23421 0.92
v -1.104157 -1.280029 0.92
v -1.192672 -1.493725 0.92
v -1.238492 -1.512704 0.92
v -1.287662 -1.519177 0.92
v -2.0 1.293337 0.92
v -2.0 1.382184 0.92
v -2.0 1.454655 0.92
v -2.0 1.558059 0.92
v -2.0 2.0 0.92
v 2.0 0.625 0.2
v 2.0 0.875 0.2
v 2.0 -0.375 0.2
v 2.0 -0.125 0.2
v 2.0 0.375 0.2
v 2.0 -0.625 0.2
v 2.0 -1.375 0.2
v 2.0 -1.125 0.2
v 2.0 -0.875 0.2
v 2.0 0.125 0.2
v 2.0 1.375 0.2
v 2.0 1.125 0.2
v -0.625 2.0 0.2
v -0.875 2.0 0.2
v -0.375 2.0 0.2
v 1.375 2.0 0.2
v 1.125 2.0 0.2
v 0.375 2.0 0.2
v 0.125 2.0 0.2
v 0.625 2.0 0.2
v -1.375 2.0 0.2
v -1.125 2.0 0.2
v 0.875 2.0 0.2
v -0.125 2.0 0.2
v -2.0 0.375 0.2
v -2.0 0.125 0.2
v -2.0 0.625 0.2
v -2.0 1.375 0.2
v -2.0 1.125 0.2
v -2.0 0.875 0.2
v -2.0 -0.625 0.2
v -2.0 -0.875 0.2
v -2.0 -0.375 0.2
v -2.0 -0.125 0.2
v -2.0 -1.375 0.2
v -2.0 -1.125 0.2
v -1.375 -2.0 0.2
v -1.125 -2.0 0.2
v -0.625 -2.0 0.2
v -0.375 -2.0 0.2
v -0.875 -2.0 0.2
v -0.125 -2.0 0.2
v 0.375 -2.0 0.2
v 0.625 -2.0 0.2
v 0.875 -2.0 0.2
v 0.125 -2.0 0.2
v 1.375 -2.0 0.2
v 1.125 -2.0 0.2
v -1.375 -2.01 0.2
v -1.125 -2.01 0.2
newmtl 2
Ka 0.6470588235294118 0.6196078431372549 0.5882352941176471
Kd 0.6470588235294118 0.6196078431372549 0.5882352941176471
Ks 0.45098039215686275 0.43529411764705883 0.4117647058823529
d 0.0
endmtl
v -1.375 -1.61 0.0
v -1.375 -2.01 0.0
v -1.125 -2.01 0.0
v -1.125 -1.61 0.0
v -0.875 -2.01 0.2
v -0.625 -2.01 0.2
v -0.875 -1.61 0.0
v -0.875 -2.01 0.0
v -0.625 -2.01 0.0
v -0.625 -1.61 0.0
v -0.375 -2.01 0.2
v -0.125 -2.01 0.2
v -0.375 -1.61 0.0
v -0.375 -2.01 0.0
v -0.125 -2.01 0.0
v -0.125 -1.61 0.0
v 0.125 -2.01 0.2
v 0.375 -2.01 0.2
v 0.125 -1.61 0.0
v 0.125 -2.01 0.0
v 0.375 -2.01 0.0
v 0.375 -1.61 0.0
v 0.625 -2.01 0.2
v 0.875 -2.01 0.2
v 0.625 -1.61 0.0
v 0.625 -2.01 0.0
v 0.875 -2.01 0.0
v 0.875 -1.61 0.0
v 1.125 -2.01 0.2
v 1.375 -2.01 0.2
v 1.125 -1.61 0.0
v 1.125 -2.01 0.0
v 1.375 -2.01 0.0
v 1.375 -1.61 0.0
v -1.61 1.125 0.0
v -1.61 1.375 0.0
v -2.01 1.375 0.0
v -2.01 1.375 0.2
v -2.01 1.125 0.2
v -2.01 1.125 0.0
v -1.61 0.625 0.0
v -1.61 0.875 0.0
v -2.01 0.875 0.0
v -2.01 0.875 0.2
v -2.01 0.625 0.2
v -2.01 0.625 0.0
v -1.61 0.125 0.0
v -1.61 0.375 0.0
v -2.01 0.375 0.0
v -2.01 0.375 0.2
v -2.01 0.125 0.2
v -2.01 0.125 0.0
v -1.61 -0.375 0.0
v -1.61 -0.125 0.0
v -2.01 -0.125 0.0
v -2.01 -0.125 0.2
v -2.01 -0.375 0.2
v -2.01 -0.375 0.0
v -1.61 -0.875 0.0
v -1.61 -0.625 0.0
v -2.01 -0.625 0.0
v -2.01 -0.625 0.2
v -2.01 -0.875 0.2
v -2.01 -0.875 0.0
v -1.61 -1.375 0.0
v -1.61 -1.125 0.0
v -2.01 -1.125 0.0
v -2.01 -1.125 0.2
v -2.01 -1.375 0.2
v -2.01 -1.375 0.0
v 1.125 1.61 0.0
v 1.375 1.61 0.0
v 1.375 2.01 0.0
v 1.375 2.01 0.2
v 1.125 2.01 0.2
v 1.125 2.01 0.0
v 0.625 1.61 0.0
v 0.875 1.61 0.0
v 0.875 2.01 0.0
v 0.875 2.01 0.2
v 0.625 2.01 0.2
v 0.625 2.01 0.0
v 0.125 1.61 0.0
v 0.375 1.61 0.0
v 0.375 2.01 0.0
v 0.375 2.01 0.2
v 0.125 2.01 0.2
v 0.125 2.01 0.0
v -0.375 1.61 0.0
v -0.125 1.61 0.0
v -0.125 2.01 0.0
v -0.125 2.01 0.2
v -0.375 2.01 0.2
v -0.375 2.01 0.0
v -0.875 1.61 0.0
v -0.625 1.61 0.0
v -0.625 2.01 0.0
v -0.625 2.01 0.2
v -0.875 2.01 0.2
v -0.875 2.01 0.0
v -1.375 1.61 0.0
v -1.125 1.61 0.0
v -1.125 2.01 0.0
v -1.125 2.01 0.2
v -1.375 2.01 0.2
v -1.375 2.01 0.0
v 1.61 -1.125 0.0
v 1.61 -1.375 0.0
v 2.01 -1.375 0.0
v 2.01 -1.375 0.2
v 2.01 -1.125 0.2
v 2.01 -1.125 0.0
v 1.61 -0.625 0.0
v 1.61 -0.875 0.0
v 2.01 -0.875 0.0
v 2.01 -0.875 0.2
v 2.01 -0.625 0.2
v 2.01 -0.625 0.0
v 1.61 -0.125 0.0
v 1.61 -0.375 0.0
v 2.01 -0.375 0.0
v 2.01 -0.375 0.2
v 2.01 -0.125 0.2
v 2.01 -0.125 0.0
v 1.61 0.375 0.0
v 1.61 0.125 0.0
v 2.01 0.125 0.0
v 2.01 0.125 0.2
v 2.01 0.375 0.2
v 2.01 0.375 0.0
v 1.61 0.875 0.0
v 1.61 0.625 0.0
v 2.01 0.625 0.0
v 2.01 0.625 0.2
v 2.01 0.875 0.2
v 2.01 0.875 0.0
v 1.61 1.375 0.0
v 1.61 1.125 0.0
v 2.01 1.125 0.0
v 2.01 1.125 0.2
v 2.01 1.375 0.2
v 2.01 1.375 0.0
v -1.097683 -1.329199 0.919
v -1.104157 -1.280029 0.919
newmtl 3
Ka 0.9686274509803922 0.8784313725490196 0.6
Kd 0.9686274509803922 0.8784313725490196 0.6
Ks 0.6784313725490196 0.615686274509804 0.4196078431372549
d 0.0
endmtl
v -1.123136 -1.23421 0.919
v -1.153327 -1.194864 0.919
v -1.192672 -1.164673 0.919
v -1.238492 -1.145694 0.919
v -1.287662 -1.139221 0.919
v -1.336831 -1.145694 0.919
v -1.382651 -1.164673 0.919
v -1.421996 -1.194864 0.919
v -1.452188 -1.23421 0.919
v -1.471166 -1.280029 0.919
v -1.47764 -1.329199 0.919
v -1.471166 -1.378369 0.919
v -1.452188 -1.424188 0.919
v -1.421996 -1.463534 0.919
v -1.382651 -1.493725 0.919
v -1.336831 -1.512704 0.919
v -1.287662 -1.519177 0.919
v -1.238492 -1.512704 0.919
v -1.192672 -1.493725 0.919
v -1.153327 -1.463534 0.919
v -1.123136 -1.424188 0.919
v -1.104157 -1.378369 0.919
v -1.287662 -1.329199 0.919
v 1.179701 1.467106 0.9201
v 1.179701 1.455513 0.9201
v 1.139202 1.467106 0.9201
v 1.139202 1.557201 0.9201
v 1.126075 1.557201 0.9201
v 1.126075 1.455513 0.9201
v 1.247344 1.455279 0.9201
v 1.231845 1.453797 0.9201
v 1.258261 1.458859 0.9201
v 1.259996 1.459724 0.9201
v 1.259996 1.472305 0.9201
v 1.249989 1.467811 0.9201
v 1.238487 1.465671 0.9201
v 1.233742 1.465494 0.9201
v 1.223562 1.466715 0.9201
v 1.216307 1.469505 0.9201
v 1.209654 1.474194 0.9201
v 1.207618 1.476204 0.9201
v 1.203092 1.482323 0.9201
v 1.19964 1.490364 0.9201
v 1.197831 1.500268 0.9201
v 1.197637 1.505213 0.9201
v 1.199317 1.519204 0.9201
v 1.202727 1.527981 0.9201
v 1.207646 1.535044 0.9201
v 1.20832 1.535782 0.9201
v 1.214368 1.540927 0.9201
v 1.222252 1.544871 0.9201
v 1.230941 1.546797 0.9201
v 1.23603 1.547063 0.9201
v 1.248549 1.545569 0.9201
v 1.258864 1.541644 0.9201
v 1.259996 1.541033 0.9201
v 1.259996 1.554758 0.9201
v 1.2359 1.558917 0.9201
v 1.249215 1.55787 0.9201
v 1.221187 1.557127 0.9201
v 1.210563 1.553001 0.9201
v 1.201045 1.54633 0.9201
v 1.198546 1.543944 0.9201
v 1.191175 1.534314 0.9201
v 1.186345 1.523018 0.9201
v 1.184039 1.509743 0.9201
v 1.18386 1.504433 0.9201
v 1.185871 1.487858 0.9201
v 1.190015 1.477252 0.9201
v 1.196087 1.468575 0.9201
v 1.196909 1.467678 0.9201
v 1.225697 1.454088 0.9201
v 1.205082 1.460886 0.9201
v 1.214678 1.456359 0.9201
v 1.335041 1.467106 0.9201
v 1.335041 1.455513 0.9201
v 1.293476 1.467106 0.9201
v 1.293476 1.501314 0.9201
v 1.329842 1.501314 0.9201
v 1.329842 1.512959 0.9201
v 1.293476 1.512959 0.9201
v 1.293476 1.545504 0.9201
v 1.332727 1.545504 0.9201
v 1.332727 1.557201 0.9201
v 1.280349 1.557201 0.9201
v 1.280349 1.455513 0.9201
v 1.421704 1.469757 0.9201
v 1.4112 1.476618 0.9201
v 1.411093 1.462147 0.9201
v 1.404646 1.472057 0.9201
v 1.399503 1.457619 0.9201
v 1.396254 1.468795 0.9201
v 1.38222 1.455513 0.9201
v 1.382142 1.467106 0.9201
v 1.35425 1.455513 0.9201
v 1.367377 1.467106 0.9201
v 1.35425 1.557201 0.9201
v 1.367377 1.545504 0.9201
v 1.383259 1.557201 0.9201
v 1.38274 1.545504 0.9201
v 1.384165 1.545489 0.9201
v 1.398786 1.555486 0.9201
v 1.397047 1.543749 0.9201
v 1.411059 1.551003 0.9201
v 1.405657 1.540355 0.9201
v 1.421704 1.543736 0.9201
v 1.412087 1.535938 0.9201
v 1.425283 1.540237 0.9201
v 1.414912 1.533156 0.9201
v 1.43158 1.531373 0.9201
v 1.418856 1.527459 0.9201
v 1.435344 1.521677 0.9201
v 1.421725 1.520039 0.9201
v 1.437041 1.507657 0.9201
v 1.423238 1.507293 0.9201
v 1.436736 1.50118 0.9201
v 1.422803 1.500007 0.9201
v 1.434272 1.489274 0.9201
v 1.420705 1.490879 0.9201
v 1.429264 1.478757 0.9201
v 1.417086 1.483443 0.9201
v 1.412373 1.477712 0.9201
v 1.38274 1.545504 0.92
v 1.367377 1.545504 0.92
v 1.367377 1.467106 0.92
v 1.382142 1.467106 0.92
v 1.412373 1.477712 0.92
v 1.4112 1.476618 0.92
v 1.404646 1.472057 0.92
v 1.396254 1.468795 0.92
v 1.423238 1.507293 0.92
v 1.422803 1.500007 0.92
v 1.420705 1.490879 0.92
v 1.417086 1.483443 0.92
v 1.412087 1.535938 0.92
v 1.414912 1.533156 0.92
v 1.418856 1.527459 0.92
v 1.421725 1.520039 0.92
v 1.384165 1.545489 0.92
v 1.397047 1.543749 0.92
v 1.405657 1.540355 0.92
v 1.471119 1.494816 0.9201
v 1.46696 1.483326 0.9201
v 1.505249 1.494816 0.9201
v 1.509304 1.483326 0.9201
v 1.486325 1.537082 0.9201
v 1.481412 1.557201 0.9201
v 1.442682 1.455513 0.9201
v 1.457186 1.455513 0.9201
v 1.487206 1.540117 0.9201
v 1.487989 1.544204 0.9201
v 1.495449 1.557201 0.9201
v 1.488301 1.544204 0.9201
v 1.489123 1.539902 0.9201
v 1.489887 1.537082 0.9201
v 1.53418 1.455513 0.9201
v 1.519676 1.455513 0.9201
v 1.471119 1.494816 0.92
v 1.505249 1.494816 0.92
v 1.489887 1.537082 0.92
v 1.488301 1.544204 0.92
v 1.489123 1.539902 0.92
v 1.487989 1.544204 0.92
v 1.486325 1.537082 0.92
v 1.487206 1.540117 0.92
v 1.180766 1.305788 0.9201
v 1.180766 1.294194 0.9201
v 1.139202 1.305788 0.9201
v 1.139202 1.339996 0.9201
v 1.175568 1.339996 0.9201
v 1.175568 1.351641 0.9201
v 1.139202 1.351641 0.9201
v 1.139202 1.384185 0.9201
v 1.178453 1.384185 0.9201
v 1.178453 1.395883 0.9201
v 1.126075 1.395883 0.9201
v 1.126075 1.294194 0.9201
v 1.238577 1.294194 0.9201
v 1.251314 1.294194 0.9201
v 1.238577 1.305424 0.9201
v 1.251314 1.340931 0.9201
v 1.21315 1.326281 0.9201
v 1.221577 1.32835 0.9201
v 1.238577 1.330638 0.9201
v 1.238577 1.323671 0.9201
v 1.238239 1.305424 0.9201
v 1.231521 1.307294 0.9201
v 1.235342 1.301239 0.9201
v 1.227922 1.304865 0.9201
v 1.238565 1.322826 0.9201
v 1.237745 1.317143 0.9201
v 1.235876 1.312599 0.9201
v 1.233118 1.308855 0.9201
v 1.233682 1.367589 0.9201
v 1.231134 1.356655 0.9201
v 1.238824 1.365838 0.9201
v 1.233395 1.355198 0.9201
v 1.210449 1.324849 0.9201
v 1.238577 1.34036 0.9201
v 1.238134 1.345991 0.9201
v 1.250088 1.351563 0.9201
v 1.236817 1.350527 0.9201
v 1.248 1.357044 0.9201
v 1.23532 1.35315 0.9201
v 1.245312 1.36099 0.9201
v 1.242899 1.363307 0.9201
v 1.200054 1.361727 0.9201
v 1.200054 1.349353 0.9201
v 1.202683 1.36325 0.9201
v 1.208821 1.354868 0.9201
v 1.212155 1.36692 0.9201
v 1.216798 1.357458 0.9201
v 1.22506 1.368485 0.9201
v 1.223865 1.358139 0.9201
v 1.228179 1.357687 0.9201
v 1.208485 1.307292 0.9201
v 1.199196 1.298197 0.9201
v 1.209568 1.306203 0.9201
v 1.203485 1.295205 0.9201
v 1.212106 1.30447 0.9201
v 1.208369 1.293364 0.9201
v 1.214987 1.303413 0.9201
v 1.215988 1.292479 0.9201
v 1.21929 1.302928 0.9201
v 1.223022 1.29332 0.9201
v 1.224057 1.303461 0.9201
v 1.228107 1.295271 0.9201
v 1.231198 1.297241 0.9201
v 1.217054 1.337344 0.9201
v 1.206594 1.33464 0.9201
v 1.209256 1.323879 0.9201
v 1.201458 1.331818 0.9201
v 1.207731 1.321992 0.9201
v 1.197724 1.328379 0.9201
v 1.206613 1.319616 0.9201
v 1.195089 1.324241 0.9201
v 1.205985 1.316699 0.9201
v 1.193545 1.319578 0.9201
v 1.205877 1.314677 0.9201
v 1.192958 1.313638 0.9201
v 1.2062 1.311753 0.9201
v 1.193597 1.307813 0.9201
v 1.207037 1.309439 0.9201
v 1.195145 1.303515 0.9201
v 1.197798 1.299611 0.9201
v 1.209256 1.323879 0.92
v 1.210449 1.324849 0.92
v 1.21315 1.326281 0.92
v 1.221577 1.32835 0.92
v 1.205877 1.314677 0.92
v 1.205985 1.316699 0.92
v 1.206613 1.319616 0.92
v 1.207731 1.321992 0.92
v 1.209568 1.306203 0.92
v 1.208485 1.307292 0.92
v 1.207037 1.309439 0.92
v 1.2062 1.311753 0.92
v 1.21929 1.302928 0.92
v 1.214987 1.303413 0.92
v 1.212106 1.30447 0.92
v 1.233118 1.308855 0.92
v 1.231521 1.307294 0.92
v 1.227922 1.304865 0.92
v 1.224057 1.303461 0.92
v 1.238577 1.323671 0.92
v 1.238565 1.322826 0.92
v 1.237745 1.317143 0.92
v 1.235876 1.312599 0.92
v 1.238577 1.330638 0.92
v 1.268574 1.309895 0.9201
v 1.273915 1.30663 0.9201
v 1.289525 1.302876 0.9201
v 1.281919 1.303721 0.9201
v 1.268574 1.296742 0.9201
v 1.276072 1.293947 0.9201
v 1.288277 1.292479 0.9201
v 1.299722 1.29383 0.9201
v 1.306435 1.296407 0.9201
v 1.309437 1.298249 0.9201
v 1.313081 1.301436 0.9201
v 1.315455 1.304796 0.9201
v 1.317019 1.308832 0.9201
v 1.317625 1.31395 0.9201
v 1.317098 1.318695 0.9201
v 1.315739 1.32245 0.9201
v 1.313362 1.325959 0.9201
v 1.310325 1.328669 0.9201
v 1.301865 1.333373 0.9201
v 1.296933 1.335369 0.9201
v 1.289051 1.3388 0.9201
v 1.28456 1.341607 0.9201
v 1.283318 1.342974 0.9201
v 1.2824 1.344693 0.9201
v 1.281895 1.346671 0.9201
v 1.281779 1.348366 0.9201
v 1.282009 1.350397 0.9201
v 1.282638 1.352117 0.9201
v 1.28373 1.353738 0.9201
v 1.285652 1.355436 0.9201
v 1.288508 1.356955 0.9201
v 1.291915 1.357857 0.9201
v 1.295686 1.358139 0.9201
v 1.303598 1.357293 0.9201
v 1.310825 1.354759 0.9201
v 1.314141 1.352889 0.9201
v 1.314141 1.365262 0.9201
v 1.305869 1.367692 0.9201
v 1.296933 1.368485 0.9201
v 1.288295 1.367628 0.9201
v 1.281155 1.365245 0.9201
v 1.276814 1.362714 0.9201
v 1.273032 1.359313 0.9201
v 1.270668 1.35587 0.9201
v 1.269153 1.351769 0.9201
v 1.268652 1.347222 0.9201
v 1.2692 1.342274 0.9201
v 1.270605 1.338385 0.9201
v 1.272265 1.335733 0.9201
v 1.28794 1.326115 0.9201
v 1.280347 1.329595 0.9201
v 1.274349 1.333553 0.9201
v 1.296303 1.322612 0.9201
v 1.301274 1.319616 0.9201
v 1.302862 1.317964 0.9201
v 1.303846 1.316275 0.9201
v 1.304425 1.314286 0.9201
v 1.30455 1.312702 0.9201
v 1.304286 1.310272 0.9201
v 1.303638 1.308461 0.9201
v 1.302527 1.306816 0.9201
v 1.301065 1.305519 0.9201
v 1.299904 1.304814 0.9201
v 1.296617 1.303612 0.9201
v 1.290088 1.30288 0.9201
v 1.380764 1.366821 0.9201
v 1.393969 1.366821 0.9201
v 1.36093 1.31213 0.9201
v 1.359956 1.308744 0.9201
v 1.359371 1.306255 0.9201
v 1.359033 1.306255 0.9201
v 1.357473 1.312234 0.9201
v 1.338498 1.366821 0.9201
v 1.324253 1.366821 0.9201
v 1.352742 1.29435 0.9201
v 1.347154 1.281145 0.9201
v 1.344606 1.276496 0.9201
v 1.342233 1.273866 0.9201
v 1.340142 1.272395 0.9201
v 1.337376 1.271299 0.9201
v 1.334105 1.270904 0.9201
v 1.329484 1.271505 0.9201
v 1.326878 1.272359 0.9201
v 1.326878 1.261026 0.9201
v 1.332281 1.260087 0.9201
v 1.335093 1.259986 0.9201
v 1.340238 1.260578 0.9201
v 1.345264 1.262493 0.9201
v 1.349713 1.265602 0.9201
v 1.350582 1.266398 0.9201
v 1.355242 1.271995 0.9201
v 1.361009 1.283225 0.9201
v 1.462385 1.305788 0.9201
v 1.462385 1.294194 0.9201
v 1.420821 1.305788 0.9201
v 1.420821 1.339996 0.9201
v 1.457186 1.339996 0.9201
v 1.457186 1.351641 0.9201
v 1.420821 1.351641 0.9201
v 1.420821 1.384185 0.9201
v 1.460071 1.384185 0.9201
v 1.460071 1.395883 0.9201
v 1.407694 1.395883 0.9201
v 1.407694 1.294194 0.9201
v 1.549049 1.308439 0.9201
v 1.538544 1.315299 0.9201
v 1.538437 1.300829 0.9201
v 1.53199 1.310738 0.9201
v 1.526847 1.2963 0.9201
v 1.523599 1.307477 0.9201
v 1.509564 1.294194 0.9201
v 1.509486 1.305788 0.9201
v 1.481594 1.294194 0.9201
v 1.494721 1.305788 0.9201
v 1.481594 1.395883 0.9201
v 1.494721 1.384185 0.9201
v 1.510604 1.395883 0.9201
v 1.510084 1.384185 0.9201
v 1.511509 1.384171 0.9201
v 1.52613 1.394168 0.9201
v 1.524392 1.38243 0.9201
v 1.538403 1.389685 0.9201
v 1.533002 1.379037 0.9201
v 1.549049 1.382418 0.9201
v 1.539431 1.37462 0.9201
v 1.552627 1.378918 0.9201
v 1.542256 1.371837 0.9201
v 1.558924 1.370055 0.9201
v 1.5462 1.36614 0.9201
v 1.562688 1.360359 0.9201
v 1.549069 1.35872 0.9201
v 1.564385 1.346338 0.9201
v 1.550582 1.345974 0.9201
v 1.56408 1.339861 0.9201
v 1.550147 1.338689 0.9201
v 1.561616 1.327956 0.9201
v 1.548049 1.329561 0.9201
v 1.556609 1.317438 0.9201
v 1.54443 1.322124 0.9201
v 1.539717 1.316393 0.9201
v 1.510084 1.384185 0.92
v 1.494721 1.384185 0.92
v 1.494721 1.305788 0.92
v 1.509486 1.305788 0.92
v 1.539717 1.316393 0.92
v 1.538544 1.315299 0.92
v 1.53199 1.310738 0.92
v 1.523599 1.307477 0.92
v 1.550582 1.345974 0.92
v 1.550147 1.338689 0.92
v 1.548049 1.329561 0.92
v 1.54443 1.322124 0.92
v 1.539431 1.37462 0.92
v 1.542256 1.371837 0.92
v 1.5462 1.36614 0.92
v 1.549069 1.35872 0.92
v 1.511509 1.384171 0.92
v 1.524392 1.38243 0.92
v 1.533002 1.379037 0.92
v 1.598463 1.333497 0.9201
v 1.594304 1.322008 0.9201
v 1.632593 1.333497 0.9201
v 1.636648 1.322008 0.9201
v 1.61367 1.375763 0.9201
v 1.608757 1.395883 0.9201
v 1.570026 1.294194 0.9201
v 1.58453 1.294194 0.9201
v 1.61455 1.378798 0.9201
v 1.615333 1.382886 0.9201
v 1.622794 1.395883 0.9201
v 1.615645 1.382886 0.9201
v 1.616467 1.378584 0.9201
v 1.617231 1.375763 0.9201
v 1.661525 1.294194 0.9201
v 1.64702 1.294194 0.9201
v 1.598463 1.333497 0.92
v 1.632593 1.333497 0.92
v 1.617231 1.375763 0.92
v 1.615645 1.382886 0.92
v 1.616467 1.378584 0.92
v 1.615333 1.382886 0.92
v 1.61367 1.375763 0.92
v 1.61455 1.378798 0.92
v 0.676975 1.279783 0.9201
v 0.687726 1.266512 0.9201
v 0.670453 1.343728 0.9201
v 0.657917 1.469389 0.9201
v 0.674036 1.477935 0.9201
v 0.67049 1.522485 0.9201
v 0.715278 1.524477 0.9201
v 0.737691 1.471698 0.9201
v 0.748729 1.494556 0.9201
v 0.810714 1.318423 0.9201
v 0.810714 1.325653 0.9201
v 0.749581 1.343251 0.9201
v 0.742783 1.345431 0.9201
v 0.654706 1.353425 0.9201
v 0.659927 1.298251 0.9201
v 0.66973 1.295288 0.9201
v 0.69865 1.525923 0.9201
v 0.760359 1.334465 0.9201
v 0.763696 1.328633 0.9201
v 0.810326 1.310938 0.9201
v 0.911933 1.379155 0.9201
v 0.88952 1.417474 0.9201
v 0.792639 1.366864 0.9201
v 0.737691 1.345897 0.9201
v 0.73103 1.345094 0.9201
v 0.721164 1.389322 0.9201
v 0.724688 1.342701 0.9201
v 0.705194 1.383216 0.9201
v 0.718983 1.338774 0.9201
v 0.690409 1.372949 0.9201
v 0.714978 1.334404 0.9201
v 0.678453 1.359285 0.9201
v 0.711515 1.328216 0.9201
v 0.709721 1.321306 0.9201
v 0.764671 1.386588 0.9201
v 0.74722 1.390923 0.9201
v 0.738414 1.391446 0.9201
v 0.75554 1.339505 0.9201
v 0.719154 1.296477 0.9201
v 0.724973 1.292554 0.9201
v 0.701868 1.255851 0.9201
v 0.731688 1.290154 0.9201
v 0.935791 1.450731 0.9201
v 0.941575 1.450731 0.9201
v 0.971218 1.489773 0.9201
v 0.955318 1.449037 0.9201
v 0.974795 1.488569 0.9201
v 0.967937 1.444179 0.9201
v 0.996308 1.477885 0.9201
v 1.015912 1.461293 0.9201
v 0.7301 1.541738 0.9201
v 0.764942 1.513931 0.9201
v 0.74709 1.556288 0.9201
v 0.784349 1.528111 0.9201
v 0.768619 1.569209 0.9201
v 0.691887 1.482155 0.9201
v 0.699373 1.482543 0.9201
v 0.706964 1.525471 0.9201
v 0.716275 1.480455 0.9201
v 0.732488 1.474541 0.9201
v 0.780011 1.378363 0.9201
v 1.016044 1.326376 0.9201
v 0.982321 1.355053 0.9201
v 0.996362 1.309718 0.9201
v 0.971627 1.346328 0.9201
v 0.974301 1.298925 0.9201
v 0.958867 1.340423 0.9201
v 0.950251 1.293842 0.9201
v 0.945913 1.337944 0.9201
v 0.907595 1.293842 0.9201
v 0.913379 1.337944 0.9201
v 0.903522 1.294498 0.9201
v 0.714493 1.301673 0.9201
v 0.71135 1.307606 0.9201
v 0.709701 1.314255 0.9201
v 0.979151 1.43635 0.9201
v 0.987511 1.427011 0.9201
v 1.030663 1.440721 0.9201
v 0.994229 1.414533 0.9201
v 1.039494 1.418638 0.9201
v 0.997618 1.400645 0.9201
v 1.042794 1.395061 0.9201
v 0.997969 1.394338 0.9201
v 1.039472 1.369237 0.9201
v 0.996234 1.380266 0.9201
v 1.030385 1.34635 0.9201
v 0.991252 1.367381 0.9201
v 0.983299 1.356103 0.9201
v 0.932176 1.546889 0.9201
v 0.903931 1.513616 0.9201
v 0.957735 1.516726 0.9201
v 0.920231 1.494127 0.9201
v 0.931378 1.470828 0.9201
v 0.629226 1.427734 0.9201
v 0.581739 1.415901 0.9201
v 0.627073 1.410244 0.9201
v 0.581525 1.408798 0.9201
v 0.627932 1.399138 0.9201
v 0.584948 1.380777 0.9201
v 0.633108 1.38144 0.9201
v 0.595231 1.353844 0.9201
v 0.641742 1.36674 0.9201
v 0.61189 1.329991 0.9201
v 0.633881 1.311129 0.9201
v 0.802227 1.581057 0.9201
v 0.80797 1.537681 0.9201
v 0.833849 1.584485 0.9201
v 0.834572 1.541105 0.9201
v 0.86916 1.580076 0.9201
v 0.859075 1.538095 0.9201
v 0.904937 1.565929 0.9201
v 0.881748 1.529412 0.9201
v 0.902063 1.515318 0.9201
v 0.643686 1.512167 0.9201
v 0.620644 1.496069 0.9201
v 0.645437 1.458261 0.9201
v 0.615505 1.491219 0.9201
v 0.635417 1.44386 0.9201
v 0.598206 1.469076 0.9201
v 0.586633 1.443069 0.9201
v 0.909744 1.338616 0.9201
v 0.89237 1.301425 0.9201
v 0.89405 1.299714 0.9201
v 0.76556 1.322031 0.9201
v 0.76576 1.31502 0.9201
v 0.806105 1.293087 0.9201
v 0.764172 1.308045 0.9201
v 0.797559 1.276968 0.9201
v 0.76092 1.301751 0.9201
v 0.786432 1.264487 0.9201
v 0.756278 1.29651 0.9201
v 0.77203 1.254468 0.9201
v 0.75072 1.292684 0.9201
v 0.755905 1.248277 0.9201
v 0.744409 1.290304 0.9201
v 0.738414 1.246124 0.9201
v 0.737691 1.289504 0.9201
v 0.735618 1.246176 0.9201
v 0.718548 1.24884 0.9201
v 0.911913 1.338136 0.9201
v 0.898739 1.296381 0.9201
v 0.886628 1.316254 0.9201
v 0.887314 1.310869 0.9201
v 0.889218 1.305966 0.9201
v 0.903438 1.337948 0.9201
v 0.898477 1.335989 0.9201
v 0.886811 1.319108 0.9201
v 0.894031 1.332837 0.9201
v 0.891044 1.329543 0.9201
v 0.888263 1.32461 0.9201
v 0.909041 1.338667 0.9201
v 0.737691 1.345897 0.92
v 0.742783 1.345431 0.92
v 0.749581 1.343251 0.92
v 0.75554 1.339505 0.92
v 0.760359 1.334465 0.92
v 0.763696 1.328633 0.92
v 0.76556 1.322031 0.92
v 0.76576 1.31502 0.92
v 0.764172 1.308045 0.92
v 0.76092 1.301751 0.92
v 0.756278 1.29651 0.92
v 0.75072 1.292684 0.92
v 0.744409 1.290304 0.92
v 0.737691 1.289504 0.92
v 0.731688 1.290154 0.92
v 0.724973 1.292554 0.92
v 0.719154 1.296477 0.92
v 0.714493 1.301673 0.92
v 0.71135 1.307606 0.92
v 0.709701 1.314255 0.92
v 0.709721 1.321306 0.92
v 0.711515 1.328216 0.92
v 0.714978 1.334404 0.92
v 0.718983 1.338774 0.92
v 0.724688 1.342701 0.92
v 0.73103 1.345094 0.92
v 1.35 -1.35 0.0
v 1.35 1.35 0.0
v -1.35 1.35 0.0
v -1.35 -1.05 0.0
v -1.05 -1.35 0.0
usemtl 1
f 1// 2// 3//
f 4// 5// 6//
f 6// 5// 7//
f 8// 9// 10//
f 10// 9// 11//
f 1// 3// 12//
f 12// 3// 10//
f 12// 10// 5//
f 5// 10// 11//
f 5// 11// 13//
f 14// 15// 16//
f 17// 18// 6//
f 6// 18// 19//
f 6// 19// 4//
f 4// 19// 20//
f 21// 22// 5//
f 23// 24// 20//
f 20// 24// 25//
f 20// 25// 4//
f 4// 25// 26//
f 27// 28// 26//
f 26// 28// 29//
f 26// 29// 4//
f 4// 29// 30//
f 16// 21// 14//
f 14// 21// 5//
f 14// 5// 31//
f 31// 5// 13//
f 31// 13// 32//
f 32// 13// 33//
f 34// 35// 36//
f 37// 38// 30//
f 30// 38// 39//
f 30// 39// 4//
f 4// 39// 40//
f 41// 42// 43//
f 44// 45// 46//
f 47// 48// 5//
f 49// 50// 51//
f 52// 53// 54//
f 54// 53// 55//
f 49// 51// 56//
f 57// 41// 40//
f 40// 41// 43//
f 40// 43// 4//
f 4// 43// 54//
f 4// 54// 58//
f 58// 54// 55//
f 58// 55// 59//
f 36// 47// 34//
f 34// 47// 5//
f 34// 5// 60//
f 60// 5// 22//
f 60// 22// 61//
f 61// 22// 62//
f 46// 7// 44//
f 44// 7// 5//
f 44// 5// 51//
f 51// 5// 48//
f 51// 48// 56//
f 63// 64// 65//
f 66// 67// 58//
f 65// 66// 63//
f 63// 66// 58//
f 63// 58// 68//
f 68// 58// 59//
f 68// 59// 69//
f 69// 59// 70//
f 71// 72// 73//
f 73// 72// 74//
f 75// 76// 77//
f 77// 76// 78//
f 79// 80// 81//
f 58// 82// 83//
f 83// 82// 77//
f 83// 77// 12//
f 12// 77// 78//
f 12// 78// 84//
f 85// 86// 87//
f 87// 86// 82//
f 74// 88// 81//
f 81// 88// 89//
f 81// 89// 79//
f 90// 91// 92//
f 93// 94// 67//
f 67// 94// 95//
f 67// 95// 58//
f 58// 95// 73//
f 58// 73// 82//
f 82// 73// 74//
f 82// 74// 87//
f 87// 74// 81//
f 96// 97// 12//
f 92// 96// 90//
f 90// 96// 12//
f 90// 12// 98//
f 98// 12// 84//
f 98// 84// 99//
f 99// 84// 100//
f 101// 1// 102//
f 102// 1// 12//
f 102// 12// 103//
f 103// 12// 97//
f 103// 97// 104//
f 104// 97// 105//
f 106// 107// 108//
f 109// 110// 111//
f 112// 113// 114//
f 115// 116// 117//
f 118// 119// 120//
f 121// 122// 123//
f 124// 125// 126//
f 126// 125// 127//
f 126// 127// 128//
f 129// 130// 127//
f 127// 130// 131//
f 127// 131// 132//
f 132// 133// 127//
f 127// 133// 134//
f 127// 134// 128//
f 135// 136// 137//
f 137// 136// 138//
f 137// 138// 129//
f 135// 137// 139//
f 139// 137// 140//
f 139// 140// 141//
f 141// 140// 142//
f 141// 142// 143//
f 123// 122// 142//
f 142// 122// 144//
f 142// 144// 145//
f 142// 146// 143//
f 143// 146// 147//
f 143// 147// 148//
f 148// 147// 149//
f 148// 149// 150//
f 145// 151// 142//
f 142// 151// 152//
f 142// 152// 146//
f 153// 154// 123//
f 123// 154// 155//
f 123// 155// 121//
f 156// 157// 158//
f 156// 158// 159//
f 157// 160// 158//
f 158// 160// 161//
f 158// 161// 153//
f 153// 161// 162//
f 153// 162// 154//
f 163// 159// 164//
f 164// 159// 158//
f 164// 158// 165//
f 165// 158// 166//
f 167// 168// 169//
f 169// 168// 170//
f 169// 170// 171//
f 170// 172// 171//
f 171// 172// 173//
f 171// 173// 174//
f 174// 173// 175//
f 174// 175// 158//
f 158// 175// 176//
f 158// 176// 166//
f 177// 178// 179//
f 179// 178// 180//
f 180// 181// 179//
f 179// 181// 182//
f 179// 182// 167//
f 183// 184// 185//
f 186// 187// 188//
f 189// 190// 191//
f 186// 188// 192//
f 187// 193// 188//
f 188// 193// 194//
f 188// 194// 195//
f 183// 185// 191//
f 191// 185// 196//
f 191// 196// 189//
f 197// 198// 199//
f 199// 198// 200//
f 199// 200// 188//
f 188// 200// 201//
f 188// 201// 192//
f 188// 202// 203//
f 204// 205// 177//
f 177// 205// 206//
f 177// 206// 207//
f 207// 208// 177//
f 177// 208// 209//
f 177// 209// 210//
f 210// 209// 197//
f 210// 197// 211//
f 211// 197// 199//
f 190// 212// 191//
f 191// 212// 213//
f 191// 213// 177//
f 177// 213// 214//
f 177// 214// 204//
f 195// 215// 188//
f 188// 215// 216//
f 188// 216// 217//
f 217// 218// 188//
f 188// 218// 219//
f 188// 219// 202//
f 220// 221// 222//
f 220// 222// 223//
f 203// 224// 188//
f 188// 224// 225//
f 188// 225// 226//
f 226// 225// 227//
f 226// 227// 228//
f 229// 230// 231//
f 231// 230// 232//
f 231// 232// 233//
f 234// 235// 236//
f 236// 235// 231//
f 236// 231// 237//
f 237// 231// 233//
f 226// 238// 239//
f 228// 240// 226//
f 226// 240// 241//
f 226// 241// 238//
f 242// 243// 244//
f 244// 243// 226//
f 244// 226// 245//
f 245// 226// 239//
f 242// 222// 243//
f 243// 222// 221//
f 243// 221// 120//
f 120// 221// 246//
f 120// 246// 118//
f 247// 248// 234//
f 234// 248// 249//
f 234// 249// 235//
f 247// 250// 248//
f 248// 250// 251//
f 248// 251// 252//
f 253// 254// 255//
f 254// 256// 255//
f 255// 256// 257//
f 255// 257// 258//
f 230// 255// 259//
f 229// 223// 230//
f 230// 223// 222//
f 230// 222// 255//
f 255// 222// 260//
f 255// 260// 253//
f 259// 261// 230//
f 230// 261// 262//
f 230// 262// 263//
f 258// 257// 264//
f 264// 257// 265//
f 264// 265// 266//
f 266// 265// 267//
f 266// 267// 268//
f 269// 270// 263//
f 263// 270// 271//
f 263// 271// 230//
f 124// 272// 125//
f 125// 272// 273//
f 125// 273// 183//
f 183// 273// 274//
f 183// 274// 184//
f 275// 276// 277//
f 275// 277// 278//
f 279// 280// 281//
f 281// 280// 282//
f 281// 282// 283//
f 283// 282// 284//
f 283// 284// 285//
f 286// 287// 288//
f 288// 287// 289//
f 288// 289// 290//
f 290// 291// 288//
f 288// 291// 280//
f 288// 280// 292//
f 292// 280// 279//
f 292// 279// 293//
f 293// 279// 294//
f 276// 295// 277//
f 277// 295// 296//
f 277// 296// 288//
f 288// 296// 297//
f 288// 297// 286//
f 298// 299// 300//
f 300// 299// 301//
f 300// 301// 302//
f 302// 301// 303//
f 302// 303// 304//
f 284// 305// 285//
f 285// 305// 302//
f 285// 302// 306//
f 306// 302// 304//
f 304// 307// 306//
f 306// 307// 308//
f 306// 308// 277//
f 277// 308// 309//
f 277// 309// 278//
f 310// 311// 312//
f 312// 311// 313//
f 314// 315// 316//
f 316// 315// 317//
f 313// 316// 312//
f 312// 316// 317//
f 312// 317// 318//
f 318// 317// 319//
f 318// 319// 320//
f 321// 125// 322//
f 322// 125// 183//
f 322// 183// 320//
f 320// 183// 191//
f 320// 191// 318//
f 323// 310// 324//
f 324// 310// 312//
f 324// 312// 325//
f 325// 312// 326//
f 325// 326// 321//
f 327// 328// 329//
f 329// 328// 302//
f 329// 302// 330//
f 330// 302// 305//
f 330// 305// 331//
f 331// 305// 332//
f 331// 332// 333//
f 328// 334// 302//
f 302// 334// 335//
f 302// 335// 336//
f 336// 335// 337//
f 336// 337// 338//
f 338// 337// 339//
f 338// 339// 333//
f 333// 339// 340//
f 333// 340// 331//
f 341// 342// 343//
f 343// 342// 344//
f 345// 346// 347//
f 347// 346// 348//
f 341// 343// 349//
f 349// 343// 350//
f 349// 350// 351//
f 351// 350// 352//
f 351// 352// 353//
f 352// 354// 353//
f 353// 354// 355//
f 353// 355// 356//
f 357// 358// 359//
f 347// 352// 345//
f 345// 352// 350//
f 345// 350// 360//
f 360// 350// 361//
f 360// 361// 359//
f 359// 361// 362//
f 359// 362// 357//
f 348// 346// 363//
f 363// 346// 364//
f 363// 364// 357//
f 365// 366// 364//
f 364// 366// 367//
f 364// 367// 368//
f 369// 370// 358//
f 370// 371// 358//
f 358// 371// 372//
f 358// 372// 373//
f 374// 375// 369//
f 357// 364// 358//
f 358// 364// 368//
f 358// 368// 369//
f 369// 368// 376//
f 369// 376// 374//
f 375// 377// 369//
f 369// 377// 378//
f 369// 378// 379//
f 379// 380// 369//
f 369// 380// 381//
f 369// 381// 382//
f 382// 383// 369//
f 369// 383// 384//
f 369// 384// 385//
f 386// 387// 385//
f 385// 387// 388//
f 385// 388// 369//
f 389// 390// 391//
f 386// 392// 387//
f 387// 392// 393//
f 387// 393// 391//
f 391// 393// 394//
f 391// 394// 389//
f 395// 365// 396//
f 396// 365// 397//
f 117// 398// 399//
f 399// 400// 117//
f 117// 400// 401//
f 117// 401// 115//
f 402// 403// 117//
f 117// 403// 404//
f 117// 404// 398//
f 405// 406// 326//
f 326// 406// 407//
f 326// 407// 402//
f 402// 407// 408//
f 402// 408// 403//
f 409// 410// 411//
f 410// 412// 411//
f 411// 412// 413//
f 411// 413// 414//
f 409// 411// 415//
f 415// 411// 416//
f 415// 416// 417//
f 417// 416// 418//
f 418// 416// 419//
f 418// 419// 373//
f 420// 421// 336//
f 422// 423// 338//
f 338// 423// 424//
f 425// 426// 427//
f 427// 426// 336//
f 427// 336// 428//
f 428// 336// 421//
f 424// 429// 338//
f 338// 429// 430//
f 338// 430// 431//
f 431// 432// 338//
f 338// 432// 433//
f 338// 433// 336//
f 336// 433// 434//
f 336// 434// 420//
f 345// 435// 422//
f 422// 435// 436//
f 422// 436// 423//
f 425// 437// 426//
f 426// 437// 438//
f 426// 438// 360//
f 360// 438// 439//
f 360// 439// 345//
f 345// 439// 440//
f 345// 440// 435//
f 441// 442// 443//
f 444// 445// 416//
f 446// 447// 448//
f 441// 443// 449//
f 450// 451// 452//
f 453// 454// 444//
f 444// 454// 455//
f 444// 455// 456//
f 456// 455// 448//
f 456// 448// 457//
f 457// 448// 447//
f 451// 458// 452//
f 452// 458// 459//
f 452// 459// 460//
f 461// 462// 443//
f 443// 462// 463//
f 443// 463// 449//
f 460// 464// 452//
f 452// 464// 465//
f 452// 465// 416//
f 416// 465// 466//
f 416// 466// 444//
f 444// 466// 467//
f 444// 467// 453//
f 468// 469// 470//
f 470// 469// 471//
f 470// 471// 472//
f 472// 471// 473//
f 474// 475// 448//
f 448// 475// 476//
f 448// 476// 477//
f 478// 479// 480//
f 480// 479// 481//
f 482// 483// 484//
f 484// 483// 485//
f 484// 485// 486//
f 445// 487// 416//
f 416// 487// 488//
f 416// 488// 489//
f 473// 490// 472//
f 472// 490// 491//
f 472// 491// 492//
f 492// 491// 480//
f 492// 480// 493//
f 493// 480// 481//
f 477// 494// 448//
f 448// 494// 495//
f 448// 495// 446//
f 442// 496// 497//
f 497// 496// 498//
f 498// 496// 499//
f 498// 499// 500//
f 482// 468// 483//
f 483// 468// 470//
f 483// 470// 501//
f 501// 470// 502//
f 501// 502// 503//
f 503// 502// 504//
f 503// 504// 505//
f 505// 504// 506//
f 507// 506// 497//
f 497// 506// 504//
f 497// 504// 442//
f 442// 504// 502//
f 442// 502// 443//
f 508// 509// 510//
f 511// 512// 510//
f 513// 514// 419//
f 489// 478// 416//
f 416// 478// 480//
f 416// 480// 419//
f 419// 480// 515//
f 419// 515// 513//
f 516// 517// 114//
f 517// 518// 114//
f 114// 518// 519//
f 114// 519// 520//
f 514// 521// 419//
f 419// 521// 522//
f 419// 522// 508//
f 508// 522// 523//
f 508// 523// 509//
f 520// 524// 114//
f 114// 524// 525//
f 114// 525// 112//
f 526// 527// 528//
f 528// 527// 529//
f 528// 529// 530//
f 528// 531// 526//
f 526// 531// 532//
f 526// 532// 533//
f 533// 534// 526//
f 526// 534// 535//
f 526// 535// 536//
f 536// 535// 537//
f 536// 537// 538//
f 538// 537// 539//
f 538// 539// 510//
f 510// 539// 540//
f 510// 540// 511//
f 541// 542// 530//
f 530// 542// 543//
f 530// 543// 528//
f 544// 545// 486//
f 486// 545// 546//
f 486// 546// 484//
f 544// 547// 545//
f 545// 547// 548//
f 545// 548// 549//
f 549// 548// 550//
f 549// 551// 552//
f 550// 553// 549//
f 549// 553// 554//
f 549// 554// 555//
f 555// 556// 549//
f 549// 556// 557//
f 549// 557// 551//
f 552// 558// 549//
f 549// 558// 559//
f 549// 559// 560//
f 561// 562// 563//
f 564// 565// 566//
f 566// 565// 567//
f 566// 567// 568//
f 568// 567// 561//
f 568// 561// 569//
f 569// 561// 563//
f 570// 571// 114//
f 114// 571// 572//
f 512// 516// 510//
f 510// 516// 114//
f 510// 114// 508//
f 508// 114// 572//
f 508// 572// 565//
f 565// 572// 573//
f 565// 573// 567//
f 574// 571// 575//
f 575// 571// 570//
f 575// 570// 576//
f 577// 578// 579//
f 580// 581// 570//
f 570// 581// 582//
f 570// 582// 576//
f 507// 497// 113//
f 113// 497// 577//
f 113// 577// 114//
f 114// 577// 579//
f 114// 579// 570//
f 570// 579// 583//
f 570// 583// 584//
f 585// 586// 587//
f 587// 586// 588//
f 587// 588// 577//
f 577// 588// 589//
f 577// 589// 578//
f 584// 590// 570//
f 570// 590// 591//
f 570// 591// 580//
f 592// 593// 594//
f 592// 594// 110//
f 593// 595// 594//
f 594// 595// 596//
f 594// 596// 587//
f 587// 596// 597//
f 587// 597// 585//
f 598// 599// 600//
f 601// 602// 280//
f 280// 602// 603//
f 291// 298// 280//
f 280// 298// 300//
f 280// 300// 601//
f 601// 300// 604//
f 601// 604// 600//
f 600// 604// 605//
f 600// 605// 598//
f 606// 607// 608//
f 609// 606// 610//
f 610// 606// 608//
f 610// 608// 300//
f 300// 608// 611//
f 300// 611// 604//
f 612// 613// 564//
f 564// 613// 614//
f 602// 615// 603//
f 603// 615// 612//
f 603// 612// 111//
f 111// 612// 564//
f 111// 564// 109//
f 109// 564// 566//
f 365// 364// 397//
f 397// 364// 346//
f 397// 346// 616//
f 616// 346// 345//
f 616// 345// 617//
f 617// 345// 422//
f 617// 422// 618//
f 618// 422// 338//
f 618// 338// 619//
f 619// 338// 333//
f 619// 333// 620//
f 620// 333// 332//
f 620// 332// 621//
f 129// 127// 137//
f 137// 127// 402//
f 137// 402// 622//
f 622// 402// 117//
f 622// 117// 396//
f 396// 117// 116//
f 396// 116// 395//
f 321// 326// 125//
f 125// 326// 623//
f 125// 623// 127//
f 623// 624// 127//
f 127// 624// 106//
f 127// 106// 402//
f 402// 106// 108//
f 402// 108// 326//
f 326// 108// 625//
f 326// 625// 623//
f 373// 419// 358//
f 358// 419// 508//
f 358// 508// 359//
f 359// 508// 565//
f 359// 565// 360//
f 360// 565// 564//
f 360// 564// 426//
f 426// 564// 614//
f 426// 614// 336//
f 336// 614// 626//
f 336// 626// 302//
f 302// 626// 627//
f 302// 627// 300//
f 300// 627// 628//
f 300// 628// 610//
f 610// 628// 629//
f 610// 629// 609//
f 414// 405// 411//
f 411// 405// 326//
f 411// 326// 416//
f 416// 326// 312//
f 416// 312// 452//
f 452// 312// 318//
f 110// 594// 111//
f 111// 594// 630//
f 111// 630// 603//
f 603// 630// 631//
f 603// 631// 280//
f 280// 631// 632//
f 280// 632// 282//
f 177// 179// 191//
f 191// 179// 633//
f 191// 633// 318//
f 318// 633// 498//
f 318// 498// 452//
f 452// 498// 500//
f 452// 500// 450//
f 167// 169// 179//
f 179// 169// 634//
f 179// 634// 633//
f 633// 634// 635//
f 633// 635// 498//
f 498// 635// 636//
f 498// 636// 497//
f 497// 636// 637//
f 497// 637// 577//
f 577// 637// 638//
f 577// 638// 587//
f 587// 638// 639//
f 587// 639// 594//
f 594// 639// 640//
f 594// 640// 630//
f 630// 640// 641//
f 630// 641// 631//
f 631// 641// 642//
f 631// 642// 632//
f 643// 644// 171//
f 171// 644// 645//
f 171// 645// 646//
f 647// 648// 174//
f 174// 648// 649//
f 650// 651// 652//
f 652// 651// 653//
f 652// 653// 654//
f 654// 655// 652//
f 652// 655// 656//
f 652// 656// 657//
f 657// 656// 658//
f 657// 658// 659//
f 659// 660// 657//
f 657// 660// 661//
f 657// 661// 662//
f 649// 663// 174//
f 174// 663// 664//
f 174// 664// 171//
f 171// 664// 665//
f 171// 665// 643//
f 646// 666// 171//
f 171// 666// 667//
f 171// 667// 652//
f 652// 667// 668//
f 652// 668// 650//
f 662// 647// 657//
f 657// 647// 174//
f 657// 174// 669//
f 669// 174// 158//
f 669// 158// 670//
f 670// 158// 153//
f 670// 153// 671//
f 671// 153// 123//
f 671// 123// 672//
f 672// 123// 142//
f 672// 142// 673//
f 673// 142// 140//
f 674// 675// 621//
f 676// 677// 621//
f 678// 18// 17//
f 642// 41// 57//
f 679// 28// 27//
f 57// 680// 642//
f 642// 680// 681//
f 642// 681// 621//
f 27// 676// 679//
f 679// 676// 621//
f 679// 621// 682//
f 682// 621// 681//
f 682// 681// 37//
f 37// 681// 38//
f 17// 674// 678//
f 678// 674// 621//
f 678// 621// 683//
f 683// 621// 677//
f 683// 677// 23//
f 23// 677// 24//
f 50// 49// 684//
f 684// 49// 621//
f 684// 621// 685//
f 685// 621// 675//
f 685// 675// 45//
f 45// 675// 46//
f 686// 687// 673//
f 621// 49// 56//
f 688// 32// 33//
f 56// 689// 621//
f 621// 689// 690//
f 621// 690// 673//
f 691// 692// 673//
f 693// 61// 62//
f 2// 1// 694//
f 694// 1// 673//
f 694// 673// 695//
f 695// 673// 687//
f 695// 687// 8//
f 8// 687// 9//
f 62// 691// 693//
f 693// 691// 673//
f 693// 673// 696//
f 696// 673// 690//
f 696// 690// 35//
f 35// 690// 36//
f 33// 686// 688//
f 688// 686// 673//
f 688// 673// 697//
f 697// 673// 692//
f 697// 692// 15//
f 15// 692// 16//
f 698// 699// 652//
f 673// 1// 101//
f 700// 92// 91//
f 101// 701// 673//
f 673// 701// 702//
f 673// 702// 652//
f 91// 698// 700//
f 700// 698// 652//
f 700// 652// 703//
f 703// 652// 702//
f 703// 702// 105//
f 105// 702// 104//
f 704// 705// 652//
f 706// 76// 75//
f 75// 704// 706//
f 706// 704// 652//
f 706// 652// 707//
f 707// 652// 699//
f 707// 699// 100//
f 100// 699// 99//
f 80// 79// 708//
f 708// 79// 652//
f 708// 652// 709//
f 709// 652// 705//
f 709// 705// 85//
f 85// 705// 86//
f 79// 89// 652//
f 652// 89// 710//
f 652// 710// 711//
f 94// 93// 712//
f 712// 93// 713//
f 72// 71// 711//
f 711// 71// 714//
f 711// 714// 652//
f 652// 714// 712//
f 652// 712// 642//
f 642// 712// 713//
f 642// 713// 715//
f 716// 69// 70//
f 717// 718// 642//
f 70// 717// 716//
f 716// 717// 642//
f 716// 642// 719//
f 719// 642// 715//
f 719// 715// 64//
f 64// 715// 65//
f 42// 41// 720//
f 720// 41// 642//
f 720// 642// 721//
f 721// 642// 718//
f 721// 718// 52//
f 52// 718// 53//
usemtl 2
f 722// 723// 710//
f 710// 723// 711//
f 88// 724// 89//
f 89// 724// 725//
f 89// 725// 710//
f 710// 725// 722//
f 711// 723// 72//
f 72// 723// 726//
f 72// 726// 74//
f 74// 726// 727//
f 74// 727// 88//
f 88// 727// 724//
f 723// 722// 726//
f 726// 722// 725//
f 727// 726// 724//
f 724// 726// 725//
f 728// 729// 714//
f 714// 729// 712//
f 73// 730// 71//
f 71// 730// 731//
f 71// 731// 714//
f 714// 731// 728//
f 712// 729// 94//
f 94// 729// 732//
f 94// 732// 95//
f 95// 732// 733//
f 95// 733// 73//
f 73// 733// 730//
f 729// 728// 732//
f 732// 728// 731//
f 733// 732// 730//
f 730// 732// 731//
f 734// 735// 713//
f 713// 735// 715//
f 67// 736// 93//
f 93// 736// 737//
f 93// 737// 713//
f 713// 737// 734//
f 715// 735// 65//
f 65// 735// 738//
f 65// 738// 66//
f 66// 738// 739//
f 66// 739// 67//
f 67// 739// 736//
f 735// 734// 738//
f 738// 734// 737//
f 739// 738// 736//
f 736// 738// 737//
f 740// 741// 719//
f 719// 741// 716//
f 63// 742// 64//
f 64// 742// 743//
f 64// 743// 719//
f 719// 743// 740//
f 716// 741// 69//
f 69// 741// 744//
f 69// 744// 68//
f 68// 744// 745//
f 68// 745// 63//
f 63// 745// 742//
f 741// 740// 744//
f 744// 740// 743//
f 745// 744// 742//
f 742// 744// 743//
f 746// 747// 717//
f 717// 747// 718//
f 59// 748// 70//
f 70// 748// 749//
f 70// 749// 717//
f 717// 749// 746//
f 718// 747// 53//
f 53// 747// 750//
f 53// 750// 55//
f 55// 750// 751//
f 55// 751// 59//
f 59// 751// 748//
f 747// 746// 750//
f 750// 746// 749//
f 751// 750// 748//
f 748// 750// 749//
f 752// 753// 721//
f 721// 753// 720//
f 54// 754// 52//
f 52// 754// 755//
f 52// 755// 721//
f 721// 755// 752//
f 720// 753// 42//
f 42// 753// 756//
f 42// 756// 43//
f 43// 756// 757//
f 43// 757// 54//
f 54// 757// 754//
f 753// 752// 756//
f 756// 752// 755//
f 757// 756// 754//
f 754// 756// 755//
f 103// 758// 102//
f 102// 758// 759//
f 102// 759// 101//
f 101// 759// 760//
f 101// 760// 701//
f 701// 760// 761//
f 702// 762// 104//
f 104// 762// 763//
f 104// 763// 103//
f 103// 763// 758//
f 761// 762// 701//
f 701// 762// 702//
f 762// 761// 763//
f 763// 761// 760//
f 758// 763// 759//
f 759// 763// 760//
f 96// 764// 97//
f 97// 764// 765//
f 97// 765// 105//
f 105// 765// 766//
f 105// 766// 703//
f 703// 766// 767//
f 700// 768// 92//
f 92// 768// 769//
f 92// 769// 96//
f 96// 769// 764//
f 767// 768// 703//
f 703// 768// 700//
f 768// 767// 769//
f 769// 767// 766//
f 764// 769// 765//
f 765// 769// 766//
f 98// 770// 90//
f 90// 770// 771//
f 90// 771// 91//
f 91// 771// 772//
f 91// 772// 698//
f 698// 772// 773//
f 699// 774// 99//
f 99// 774// 775//
f 99// 775// 98//
f 98// 775// 770//
f 773// 774// 698//
f 698// 774// 699//
f 774// 773// 775//
f 775// 773// 772//
f 770// 775// 771//
f 771// 775// 772//
f 78// 776// 84//
f 84// 776// 777//
f 84// 777// 100//
f 100// 777// 778//
f 100// 778// 707//
f 707// 778// 779//
f 706// 780// 76//
f 76// 780// 781//
f 76// 781// 78//
f 78// 781// 776//
f 779// 780// 707//
f 707// 780// 706//
f 780// 779// 781//
f 781// 779// 778//
f 776// 781// 777//
f 777// 781// 778//
f 82// 782// 77//
f 77// 782// 783//
f 77// 783// 75//
f 75// 783// 784//
f 75// 784// 704//
f 704// 784// 785//
f 705// 786// 86//
f 86// 786// 787//
f 86// 787// 82//
f 82// 787// 782//
f 785// 786// 704//
f 704// 786// 705//
f 786// 785// 787//
f 787// 785// 784//
f 782// 787// 783//
f 783// 787// 784//
f 81// 788// 87//
f 87// 788// 789//
f 87// 789// 85//
f 85// 789// 790//
f 85// 790// 709//
f 709// 790// 791//
f 708// 792// 80//
f 80// 792// 793//
f 80// 793// 81//
f 81// 793// 788//
f 791// 792// 709//
f 709// 792// 708//
f 792// 791// 793//
f 793// 791// 790//
f 788// 793// 789//
f 789// 793// 790//
f 47// 794// 48//
f 48// 794// 795//
f 48// 795// 56//
f 56// 795// 796//
f 56// 796// 689//
f 689// 796// 797//
f 690// 798// 36//
f 36// 798// 799//
f 36// 799// 47//
f 47// 799// 794//
f 797// 798// 689//
f 689// 798// 690//
f 798// 797// 799//
f 799// 797// 796//
f 794// 799// 795//
f 795// 799// 796//
f 60// 800// 34//
f 34// 800// 801//
f 34// 801// 35//
f 35// 801// 802//
f 35// 802// 696//
f 696// 802// 803//
f 693// 804// 61//
f 61// 804// 805//
f 61// 805// 60//
f 60// 805// 800//
f 803// 804// 696//
f 696// 804// 693//
f 804// 803// 805//
f 805// 803// 802//
f 800// 805// 801//
f 801// 805// 802//
f 21// 806// 22//
f 22// 806// 807//
f 22// 807// 62//
f 62// 807// 808//
f 62// 808// 691//
f 691// 808// 809//
f 692// 810// 16//
f 16// 810// 811//
f 16// 811// 21//
f 21// 811// 806//
f 809// 810// 691//
f 691// 810// 692//
f 810// 809// 811//
f 811// 809// 808//
f 806// 811// 807//
f 807// 811// 808//
f 31// 812// 14//
f 14// 812// 813//
f 14// 813// 15//
f 15// 813// 814//
f 15// 814// 697//
f 697// 814// 815//
f 688// 816// 32//
f 32// 816// 817//
f 32// 817// 31//
f 31// 817// 812//
f 815// 816// 697//
f 697// 816// 688//
f 816// 815// 817//
f 817// 815// 814//
f 812// 817// 813//
f 813// 817// 814//
f 11// 818// 13//
f 13// 818// 819//
f 13// 819// 33//
f 33// 819// 820//
f 33// 820// 686//
f 686// 820// 821//
f 687// 822// 9//
f 9// 822// 823//
f 9// 823// 11//
f 11// 823// 818//
f 821// 822// 686//
f 686// 822// 687//
f 822// 821// 823//
f 823// 821// 820//
f 818// 823// 819//
f 819// 823// 820//
f 3// 824// 10//
f 10// 824// 825//
f 10// 825// 8//
f 8// 825// 826//
f 8// 826// 695//
f 695// 826// 827//
f 694// 828// 2//
f 2// 828// 829//
f 2// 829// 3//
f 3// 829// 824//
f 827// 828// 695//
f 695// 828// 694//
f 828// 827// 829//
f 829// 827// 826//
f 824// 829// 825//
f 825// 829// 826//
f 39// 830// 40//
f 40// 830// 831//
f 40// 831// 57//
f 57// 831// 832//
f 57// 832// 680//
f 680// 832// 833//
f 681// 834// 38//
f 38// 834// 835//
f 38// 835// 39//
f 39// 835// 830//
f 833// 834// 680//
f 680// 834// 681//
f 834// 833// 835//
f 835// 833// 832//
f 830// 835// 831//
f 831// 835// 832//
f 29// 836// 30//
f 30// 836// 837//
f 30// 837// 37//
f 37// 837// 838//
f 37// 838// 682//
f 682// 838// 839//
f 679// 840// 28//
f 28// 840// 841//
f 28// 841// 29//
f 29// 841// 836//
f 839// 840// 682//
f 682// 840// 679//
f 840// 839// 841//
f 841// 839// 838//
f 836// 841// 837//
f 837// 841// 838//
f 25// 842// 26//
f 26// 842// 843//
f 26// 843// 27//
f 27// 843// 844//
f 27// 844// 676//
f 676// 844// 845//
f 677// 846// 24//
f 24// 846// 847//
f 24// 847// 25//
f 25// 847// 842//
f 845// 846// 676//
f 676// 846// 677//
f 846// 845// 847//
f 847// 845// 844//
f 842// 847// 843//
f 843// 847// 844//
f 19// 848// 20//
f 20// 848// 849//
f 20// 849// 23//
f 23// 849// 850//
f 23// 850// 683//
f 683// 850// 851//
f 678// 852// 18//
f 18// 852// 853//
f 18// 853// 19//
f 19// 853// 848//
f 851// 852// 683//
f 683// 852// 678//
f 852// 851// 853//
f 853// 851// 850//
f 848// 853// 849//
f 849// 853// 850//
f 7// 854// 6//
f 6// 854// 855//
f 6// 855// 17//
f 17// 855// 856//
f 17// 856// 674//
f 674// 856// 857//
f 675// 858// 46//
f 46// 858// 859//
f 46// 859// 7//
f 7// 859// 854//
f 857// 858// 674//
f 674// 858// 675//
f 858// 857// 859//
f 859// 857// 856//
f 854// 859// 855//
f 855// 859// 856//
f 51// 860// 44//
f 44// 860// 861//
f 44// 861// 45//
f 45// 861// 862//
f 45// 862// 685//
f 685// 862// 863//
f 684// 864// 50//
f 50// 864// 865//
f 50// 865// 51//
f 51// 865// 860//
f 863// 864// 685//
f 685// 864// 684//
f 864// 863// 865//
f 865// 863// 862//
f 860// 865// 861//
f 861// 865// 862//
usemtl 3
f 866// 643// 867//
f 867// 643// 665//
f 867// 665// 868//
f 868// 665// 664//
f 868// 664// 869//
f 869// 664// 663//
f 869// 663// 870//
f 870// 663// 649//
f 870// 649// 871//
f 871// 649// 648//
f 871// 648// 872//
f 872// 648// 647//
f 872// 647// 873//
f 873// 647// 662//
f 873// 662// 874//
f 874// 662// 661//
f 874// 661// 875//
f 875// 661// 660//
f 875// 660// 876//
f 876// 660// 659//
f 876// 659// 877//
f 877// 659// 658//
f 877// 658// 878//
f 878// 658// 656//
f 878// 656// 879//
f 879// 656// 655//
f 879// 655// 880//
f 880// 655// 654//
f 880// 654// 881//
f 881// 654// 653//
f 881// 653// 882//
f 882// 653// 651//
f 882// 651// 883//
f 883// 651// 650//
f 883// 650// 884//
f 884// 650// 668//
f 884// 668// 885//
f 885// 668// 667//
f 885// 667// 886//
f 886// 667// 666//
f 886// 666// 887//
f 887// 666// 646//
f 887// 646// 888//
f 888// 646// 645//
f 888// 645// 889//
f 889// 645// 644//
f 889// 644// 866//
f 866// 644// 643//
f 888// 889// 890//
f 890// 889// 866//
f 890// 866// 867//
f 885// 886// 890//
f 890// 886// 887//
f 890// 887// 888//
f 882// 883// 890//
f 890// 883// 884//
f 890// 884// 885//
f 879// 880// 890//
f 890// 880// 881//
f 890// 881// 882//
f 876// 877// 890//
f 890// 877// 878//
f 890// 878// 879//
f 873// 874// 890//
f 890// 874// 875//
f 890// 875// 876//
f 870// 871// 890//
f 890// 871// 872//
f 890// 872// 873//
f 867// 868// 890//
f 890// 868// 869//
f 890// 869// 870//
f 891// 892// 108//
f 108// 892// 625//
f 893// 891// 107//
f 107// 891// 108//
f 894// 893// 106//
f 106// 893// 107//
f 895// 894// 624//
f 624// 894// 106//
f 896// 895// 623//
f 623// 895// 624//
f 892// 896// 625//
f 625// 896// 623//
f 894// 895// 893//
f 893// 895// 896//
f 893// 896// 891//
f 891// 896// 892//
f 897// 898// 373//
f 373// 898// 418//
f 373// 372// 897//
f 897// 372// 371//
f 897// 371// 899//
f 899// 371// 370//
f 899// 370// 900//
f 901// 900// 369//
f 369// 900// 370//
f 901// 369// 388//
f 901// 388// 902//
f 902// 388// 387//
f 902// 387// 903//
f 903// 387// 391//
f 903// 391// 904//
f 904// 391// 390//
f 904// 390// 905//
f 905// 390// 389//
f 905// 389// 906//
f 906// 389// 394//
f 906// 394// 907//
f 907// 394// 393//
f 907// 393// 908//
f 908// 393// 392//
f 908// 392// 909//
f 909// 392// 386//
f 909// 386// 910//
f 910// 386// 385//
f 910// 385// 911//
f 911// 385// 384//
f 911// 384// 912//
f 912// 384// 383//
f 912// 383// 913//
f 913// 383// 382//
f 913// 382// 914//
f 914// 382// 381//
f 914// 381// 915//
f 915// 381// 380//
f 915// 380// 916//
f 916// 380// 379//
f 916// 379// 917//
f 917// 379// 378//
f 917// 378// 918//
f 918// 378// 377//
f 918// 377// 919//
f 919// 377// 375//
f 919// 375// 920//
f 920// 375// 374//
f 920// 374// 921//
f 921// 374// 376//
f 921// 376// 922//
f 922// 376// 368//
f 922// 368// 923//
f 924// 923// 367//
f 367// 923// 368//
f 395// 925// 365//
f 365// 925// 926//
f 365// 926// 366//
f 366// 926// 924//
f 366// 924// 367//
f 925// 395// 116//
f 925// 116// 927//
f 116// 115// 927//
f 927// 115// 401//
f 927// 401// 928//
f 928// 401// 400//
f 928// 400// 929//
f 929// 400// 399//
f 929// 399// 930//
f 930// 399// 398//
f 930// 398// 931//
f 931// 398// 404//
f 931// 404// 932//
f 404// 403// 932//
f 932// 403// 408//
f 932// 408// 933//
f 933// 408// 407//
f 933// 407// 934//
f 934// 407// 406//
f 934// 406// 935//
f 935// 406// 405//
f 935// 405// 936//
f 405// 414// 936//
f 936// 414// 413//
f 936// 413// 937//
f 937// 413// 412//
f 937// 412// 938//
f 418// 898// 939//
f 938// 412// 410//
f 938// 410// 940//
f 940// 410// 409//
f 940// 409// 941//
f 941// 409// 415//
f 941// 415// 939//
f 939// 415// 417//
f 939// 417// 418//
f 917// 918// 927//
f 913// 914// 931//
f 931// 914// 930//
f 927// 918// 925//
f 918// 919// 925//
f 925// 919// 920//
f 925// 920// 926//
f 926// 920// 921//
f 926// 921// 924//
f 924// 921// 922//
f 924// 922// 923//
f 900// 901// 899//
f 899// 901// 902//
f 899// 902// 897//
f 897// 902// 903//
f 897// 903// 898//
f 898// 903// 904//
f 898// 904// 939//
f 939// 904// 905//
f 939// 905// 941//
f 941// 905// 906//
f 941// 906// 940//
f 940// 906// 907//
f 940// 907// 938//
f 938// 907// 908//
f 938// 908// 937//
f 937// 908// 909//
f 937// 909// 936//
f 934// 912// 933//
f 933// 912// 913//
f 933// 913// 932//
f 932// 913// 931//
f 914// 915// 930//
f 930// 915// 916//
f 930// 916// 929//
f 929// 916// 917//
f 929// 917// 928//
f 928// 917// 927//
f 936// 909// 935//
f 935// 909// 910//
f 935// 910// 934//
f 934// 910// 911//
f 934// 911// 912//
f 942// 943// 350//
f 350// 943// 361//
f 344// 944// 343//
f 343// 944// 942//
f 343// 942// 350//
f 945// 944// 342//
f 342// 944// 344//
f 349// 946// 341//
f 341// 946// 945//
f 341// 945// 342//
f 947// 946// 351//
f 351// 946// 349//
f 356// 948// 353//
f 353// 948// 947//
f 353// 947// 351//
f 949// 948// 355//
f 355// 948// 356//
f 352// 950// 354//
f 354// 950// 949//
f 354// 949// 355//
f 951// 950// 347//
f 347// 950// 352//
f 363// 952// 348//
f 348// 952// 951//
f 348// 951// 347//
f 953// 952// 357//
f 357// 952// 363//
f 361// 943// 362//
f 362// 943// 953//
f 362// 953// 357//
f 953// 943// 942//
f 942// 944// 953//
f 953// 944// 945//
f 953// 945// 952//
f 950// 951// 949//
f 949// 951// 952//
f 949// 952// 948//
f 948// 952// 945//
f 948// 945// 947//
f 947// 945// 946//
f 954// 955// 956//
f 956// 955// 957//
f 956// 957// 958//
f 958// 957// 959//
f 958// 959// 960//
f 960// 959// 961//
f 960// 961// 962//
f 962// 961// 963//
f 962// 963// 964//
f 964// 963// 965//
f 964// 965// 966//
f 965// 967// 966//
f 966// 967// 968//
f 966// 968// 969//
f 969// 968// 970//
f 969// 970// 971//
f 971// 970// 972//
f 971// 972// 973//
f 973// 972// 974//
f 973// 974// 975//
f 975// 974// 976//
f 975// 976// 977//
f 977// 976// 978//
f 977// 978// 979//
f 979// 978// 980//
f 979// 980// 981//
f 981// 980// 982//
f 981// 982// 983//
f 983// 982// 984//
f 983// 984// 985//
f 985// 984// 986//
f 985// 986// 987//
f 987// 986// 988//
f 987// 988// 954//
f 954// 988// 989//
f 954// 989// 955//
f 960// 962// 438//
f 438// 962// 439//
f 428// 954// 956//
f 960// 438// 437//
f 960// 437// 958//
f 958// 437// 425//
f 958// 425// 956//
f 956// 425// 427//
f 956// 427// 428//
f 954// 428// 421//
f 954// 421// 987//
f 987// 421// 420//
f 987// 420// 985//
f 985// 420// 434//
f 985// 434// 983//
f 983// 434// 433//
f 983// 433// 981//
f 981// 433// 432//
f 981// 432// 979//
f 979// 432// 431//
f 979// 431// 977//
f 977// 431// 430//
f 977// 430// 975//
f 975// 430// 429//
f 975// 429// 973//
f 435// 966// 969//
f 973// 429// 424//
f 973// 424// 971//
f 971// 424// 423//
f 971// 423// 969//
f 969// 423// 436//
f 969// 436// 435//
f 964// 966// 440//
f 440// 966// 435//
f 962// 964// 439//
f 439// 964// 440//
f 967// 965// 990//
f 990// 965// 991//
f 965// 963// 991//
f 991// 963// 992//
f 963// 961// 992//
f 992// 961// 993//
f 989// 994// 995//
f 989// 995// 955//
f 955// 995// 996//
f 955// 996// 957//
f 957// 996// 997//
f 957// 997// 959//
f 959// 997// 993//
f 959// 993// 961//
f 982// 998// 999//
f 982// 999// 984//
f 984// 999// 1000//
f 984// 1000// 986//
f 986// 1000// 1001//
f 986// 1001// 988//
f 988// 1001// 994//
f 988// 994// 989//
f 974// 1002// 1003//
f 974// 1003// 976//
f 976// 1003// 1004//
f 976// 1004// 978//
f 978// 1004// 1005//
f 978// 1005// 980//
f 980// 1005// 998//
f 980// 998// 982//
f 967// 990// 1006//
f 967// 1006// 968//
f 968// 1006// 1007//
f 968// 1007// 970//
f 970// 1007// 1008//
f 970// 1008// 972//
f 972// 1008// 1002//
f 972// 1002// 974//
usemtl 1
f 991// 992// 990//
f 990// 992// 993//
f 990// 993// 1006//
f 1006// 993// 997//
f 1006// 997// 996//
f 996// 995// 1006//
f 1006// 995// 994//
f 1006// 994// 1001//
f 998// 1002// 999//
f 999// 1002// 1008//
f 1001// 1000// 1006//
f 1006// 1000// 999//
f 1006// 999// 1007//
f 1007// 999// 1008//
f 1005// 1004// 998//
f 998// 1004// 1003//
f 998// 1003// 1002//
usemtl 3
f 1009// 1010// 1011//
f 1011// 1010// 1012//
f 1013// 1014// 1009//
f 1009// 1014// 1015//
f 1009// 1015// 1010//
f 1010// 1015// 1016//
f 1013// 1017// 1014//
f 1014// 1017// 1018//
f 1014// 1018// 1019//
f 1019// 1018// 1020//
f 1019// 1020// 1021//
f 1021// 1022// 1019//
f 1019// 1022// 1011//
f 1019// 1011// 1023//
f 1023// 1011// 1012//
f 1023// 1012// 1024//
f 1019// 1023// 331//
f 331// 1023// 330//
f 1014// 1019// 340//
f 340// 1019// 331//
f 337// 1015// 339//
f 339// 1015// 1014//
f 339// 1014// 340//
f 1016// 1015// 335//
f 335// 1015// 337//
f 1010// 1016// 334//
f 334// 1016// 335//
f 327// 1012// 328//
f 328// 1012// 1010//
f 328// 1010// 334//
f 1024// 1012// 329//
f 329// 1012// 327//
f 1023// 1024// 330//
f 330// 1024// 329//
f 1009// 1011// 1025//
f 1025// 1011// 1026//
f 1011// 1022// 1026//
f 1026// 1022// 1027//
f 1020// 1028// 1029//
f 1020// 1029// 1021//
f 1021// 1029// 1027//
f 1021// 1027// 1022//
f 1020// 1018// 1028//
f 1028// 1018// 1030//
f 1013// 1031// 1032//
f 1013// 1032// 1017//
f 1017// 1032// 1030//
f 1017// 1030// 1018//
f 1013// 1009// 1031//
f 1031// 1009// 1025//
usemtl 1
f 1028// 1030// 1029//
f 1029// 1030// 1032//
f 1029// 1032// 1027//
f 1027// 1032// 1031//
f 1027// 1031// 1026//
f 1026// 1031// 1025//
usemtl 3
f 1033// 1034// 317//
f 317// 1034// 319//
f 1035// 1033// 315//
f 315// 1033// 317//
f 1036// 1035// 314//
f 314// 1035// 315//
f 1037// 1036// 316//
f 316// 1036// 314//
f 1038// 1037// 313//
f 313// 1037// 316//
f 1039// 1038// 311//
f 311// 1038// 313//
f 323// 1040// 310//
f 310// 1040// 1039//
f 310// 1039// 311//
f 1041// 1040// 324//
f 324// 1040// 323//
f 1042// 1041// 325//
f 325// 1041// 324//
f 1043// 1042// 321//
f 321// 1042// 325//
f 320// 1044// 322//
f 322// 1044// 1043//
f 322// 1043// 321//
f 1034// 1044// 319//
f 319// 1044// 320//
f 1044// 1034// 1033//
f 1033// 1035// 1044//
f 1044// 1035// 1036//
f 1044// 1036// 1043//
f 1041// 1042// 1040//
f 1040// 1042// 1043//
f 1040// 1043// 1039//
f 1039// 1043// 1036//
f 1039// 1036// 1038//
f 1038// 1036// 1037//
f 1045// 1046// 1047//
f 1047// 1046// 1048//
f 1049// 1050// 1048//
f 1048// 1050// 1051//
f 1048// 1051// 1052//
f 1053// 1054// 1055//
f 1055// 1054// 1056//
f 1052// 1057// 1048//
f 1048// 1057// 1058//
f 1048// 1058// 1047//
f 1047// 1058// 1059//
f 1047// 1059// 1053//
f 1053// 1059// 1060//
f 1053// 1060// 1054//
f 1061// 1062// 1063//
f 1063// 1062// 1064//
f 1065// 1049// 1066//
f 1066// 1049// 1048//
f 1066// 1048// 1067//
f 1067// 1048// 1068//
f 1067// 1068// 1069//
f 1069// 1068// 1070//
f 1069// 1070// 1071//
f 1071// 1070// 1072//
f 1071// 1072// 1064//
f 1064// 1072// 1073//
f 1064// 1073// 1063//
f 1074// 1075// 1076//
f 1076// 1075// 1077//
f 1076// 1077// 1078//
f 1078// 1077// 1079//
f 1078// 1079// 1080//
f 1080// 1079// 1081//
f 1080// 1081// 1061//
f 1061// 1081// 1082//
f 1061// 1082// 1062//
f 1083// 1084// 1085//
f 1085// 1084// 1086//
f 1085// 1086// 1087//
f 1087// 1086// 1088//
f 1087// 1088// 1089//
f 1089// 1088// 1090//
f 1089// 1090// 1091//
f 1091// 1090// 1092//
f 1091// 1092// 1093//
f 1093// 1092// 1094//
f 1093// 1094// 1056//
f 1056// 1094// 1095//
f 1056// 1095// 1055//
f 1066// 1096// 1065//
f 1065// 1096// 1097//
f 1065// 1097// 1098//
f 1098// 1097// 1099//
f 1098// 1099// 1100//
f 1100// 1099// 1101//
f 1100// 1101// 1102//
f 1102// 1101// 1103//
f 1102// 1103// 1104//
f 1104// 1103// 1105//
f 1104// 1105// 1106//
f 1106// 1105// 1107//
f 1106// 1107// 1108//
f 1108// 1107// 1109//
f 1108// 1109// 1110//
f 1110// 1109// 1111//
f 1110// 1111// 1083//
f 1083// 1111// 1112//
f 1083// 1112// 1084//
f 1080// 489// 488//
f 1080// 488// 1078//
f 1078// 488// 487//
f 1078// 487// 1076//
f 1076// 487// 445//
f 1076// 445// 1074//
f 1075// 1074// 444//
f 444// 1074// 445//
f 1075// 444// 456//
f 1075// 456// 1077//
f 1077// 456// 457//
f 1077// 457// 1079//
f 1079// 457// 447//
f 1079// 447// 1081//
f 1081// 447// 446//
f 1081// 446// 1082//
f 1082// 446// 495//
f 1082// 495// 1062//
f 1062// 495// 494//
f 1062// 494// 1064//
f 1064// 494// 477//
f 1064// 477// 1071//
f 1071// 477// 476//
f 1071// 476// 1069//
f 1069// 476// 475//
f 1069// 475// 1067//
f 1067// 475// 474//
f 1067// 474// 1066//
f 1096// 1066// 448//
f 448// 1066// 474//
f 1096// 448// 455//
f 1096// 455// 1097//
f 1097// 455// 454//
f 1097// 454// 1099//
f 1099// 454// 453//
f 1099// 453// 1101//
f 1101// 453// 467//
f 1101// 467// 1103//
f 1103// 467// 466//
f 1103// 466// 1105//
f 1105// 466// 465//
f 1105// 465// 1107//
f 1107// 465// 464//
f 1107// 464// 1109//
f 1109// 464// 460//
f 1109// 460// 1111//
f 1111// 460// 459//
f 1111// 459// 1112//
f 1112// 459// 458//
f 1112// 458// 1084//
f 499// 1090// 500//
f 500// 1090// 1088//
f 500// 1088// 450//
f 450// 1088// 1086//
f 450// 1086// 451//
f 451// 1086// 1084//
f 451// 1084// 458//
f 1090// 499// 496//
f 1090// 496// 1092//
f 1092// 496// 442//
f 1092// 442// 1094//
f 442// 441// 1094//
f 1094// 441// 449//
f 1094// 449// 1095//
f 1095// 449// 463//
f 1095// 463// 1055//
f 1055// 463// 462//
f 1055// 462// 1053//
f 1047// 1053// 461//
f 461// 1053// 462//
f 1045// 1047// 443//
f 443// 1047// 461//
f 1046// 1045// 502//
f 502// 1045// 443//
f 1048// 1046// 470//
f 470// 1046// 502//
f 1048// 470// 472//
f 1048// 472// 1068//
f 1068// 472// 492//
f 1068// 492// 1070//
f 1070// 492// 493//
f 1070// 493// 1072//
f 1072// 493// 481//
f 1072// 481// 1073//
f 1073// 481// 479//
f 1073// 479// 1063//
f 1063// 479// 478//
f 1063// 478// 1061//
f 1061// 478// 489//
f 1061// 489// 1080//
f 1098// 1113// 1114//
f 1098// 1114// 1065//
f 1065// 1114// 1115//
f 1065// 1115// 1049//
f 1049// 1115// 1116//
f 1049// 1116// 1050//
f 1106// 1117// 1118//
f 1106// 1118// 1104//
f 1104// 1118// 1119//
f 1104// 1119// 1102//
f 1102// 1119// 1120//
f 1102// 1120// 1100//
f 1100// 1120// 1113//
f 1100// 1113// 1098//
f 1085// 1121// 1122//
f 1085// 1122// 1083//
f 1083// 1122// 1123//
f 1083// 1123// 1110//
f 1110// 1123// 1124//
f 1110// 1124// 1108//
f 1108// 1124// 1117//
f 1108// 1117// 1106//
f 1091// 1125// 1126//
f 1091// 1126// 1089//
f 1089// 1126// 1127//
f 1089// 1127// 1087//
f 1087// 1127// 1121//
f 1087// 1121// 1085//
f 1060// 1128// 1129//
f 1060// 1129// 1054//
f 1054// 1129// 1130//
f 1054// 1130// 1056//
f 1056// 1130// 1131//
f 1056// 1131// 1093//
f 1093// 1131// 1125//
f 1093// 1125// 1091//
f 1052// 1132// 1133//
f 1052// 1133// 1057//
f 1057// 1133// 1134//
f 1057// 1134// 1058//
f 1058// 1134// 1135//
f 1058// 1135// 1059//
f 1059// 1135// 1128//
f 1059// 1128// 1060//
f 1052// 1051// 1132//
f 1132// 1051// 1136//
f 1051// 1050// 1136//
f 1136// 1050// 1116//
usemtl 1
f 1133// 1132// 1113//
f 1132// 1136// 1116//
f 1116// 1115// 1132//
f 1132// 1115// 1114//
f 1132// 1114// 1113//
f 1133// 1113// 1134//
f 1134// 1113// 1120//
f 1134// 1120// 1135//
f 1122// 1121// 1129//
f 1122// 1129// 1123//
f 1130// 1129// 1131//
f 1131// 1129// 1125//
f 1120// 1119// 1135//
f 1135// 1119// 1118//
f 1135// 1118// 1128//
f 1128// 1118// 1117//
f 1128// 1117// 1129//
f 1129// 1117// 1124//
f 1129// 1124// 1123//
f 1121// 1127// 1129//
f 1129// 1127// 1126//
f 1129// 1126// 1125//
usemtl 3
f 483// 1137// 1138//
f 1139// 547// 544//
f 1139// 544// 1140//
f 1140// 544// 486//
f 1140// 486// 1138//
f 1138// 486// 485//
f 1138// 485// 483//
f 1141// 1137// 501//
f 501// 1137// 483//
f 1142// 1141// 503//
f 503// 1141// 501//
f 507// 1143// 506//
f 506// 1143// 1142//
f 506// 1142// 505//
f 505// 1142// 503//
f 1144// 1143// 113//
f 113// 1143// 507//
f 113// 112// 1144//
f 1144// 112// 525//
f 1144// 525// 1145//
f 1145// 525// 524//
f 1145// 524// 1146//
f 1146// 524// 520//
f 1146// 520// 1147//
f 1147// 520// 519//
f 1147// 519// 1148//
f 1148// 519// 518//
f 1148// 518// 1149//
f 1149// 518// 517//
f 1149// 517// 1150//
f 1150// 517// 516//
f 1150// 516// 1151//
f 1151// 516// 512//
f 1151// 512// 1152//
f 1152// 512// 511//
f 1152// 511// 1153//
f 1153// 511// 540//
f 1153// 540// 1154//
f 1154// 540// 539//
f 1154// 539// 1155//
f 1155// 539// 537//
f 1155// 537// 1156//
f 1156// 537// 535//
f 1156// 535// 1157//
f 1157// 535// 534//
f 1157// 534// 1158//
f 1158// 534// 533//
f 1158// 533// 1159//
f 1159// 533// 532//
f 1159// 532// 1160//
f 1160// 532// 531//
f 1160// 531// 1161//
f 1161// 531// 528//
f 1161// 528// 1162//
f 1162// 528// 543//
f 1162// 543// 1163//
f 1163// 543// 542//
f 1163// 542// 1164//
f 1164// 542// 541//
f 1164// 541// 1165//
f 1165// 541// 530//
f 1165// 530// 1166//
f 1166// 530// 529//
f 1166// 529// 1167//
f 1167// 529// 527//
f 1167// 527// 1168//
f 1168// 527// 526//
f 1168// 526// 1169//
f 1169// 526// 536//
f 1169// 536// 1170//
f 1170// 536// 538//
f 1170// 538// 1171//
f 1171// 538// 510//
f 1171// 510// 1172//
f 1173// 1172// 509//
f 509// 1172// 510//
f 1173// 509// 523//
f 1173// 523// 1174//
f 1174// 523// 522//
f 1174// 522// 1175//
f 1175// 522// 521//
f 1175// 521// 1176//
f 1176// 521// 514//
f 1176// 514// 1177//
f 1177// 514// 513//
f 1177// 513// 1178//
f 1179// 1178// 515//
f 515// 1178// 513//
f 515// 480// 1179//
f 1179// 480// 491//
f 1179// 491// 1180//
f 1180// 491// 490//
f 1180// 490// 1181//
f 1181// 490// 473//
f 1181// 473// 1182//
f 1182// 473// 471//
f 1182// 471// 1183//
f 1183// 471// 469//
f 1183// 469// 1184//
f 1184// 469// 468//
f 1184// 468// 1185//
f 545// 1186// 1187//
f 1185// 468// 482//
f 1185// 482// 1188//
f 1188// 482// 484//
f 1188// 484// 1187//
f 1187// 484// 546//
f 1187// 546// 545//
f 1186// 545// 549//
f 1186// 549// 1189//
f 1189// 549// 560//
f 1189// 560// 1190//
f 1190// 560// 559//
f 1190// 559// 1191//
f 1191// 559// 558//
f 1191// 558// 1192//
f 1192// 558// 552//
f 1192// 552// 1193//
f 1193// 552// 551//
f 1193// 551// 1194//
f 1194// 551// 557//
f 1194// 557// 1195//
f 1195// 557// 556//
f 1195// 556// 1196//
f 1196// 556// 555//
f 1196// 555// 1197//
f 1197// 555// 554//
f 1197// 554// 1198//
f 1198// 554// 553//
f 1198// 553// 1199//
f 1199// 553// 550//
f 1199// 550// 1200//
f 1200// 550// 548//
f 1200// 548// 1201//
f 1201// 548// 547//
f 1201// 547// 1139//
f 1189// 1156// 1186//
f 1186// 1156// 1157//
f 1145// 1146// 1197//
f 1197// 1146// 1147//
f 1197// 1147// 1196//
f 1196// 1147// 1148//
f 1196// 1148// 1195//
f 1195// 1148// 1149//
f 1195// 1149// 1194//
f 1194// 1149// 1150//
f 1194// 1150// 1193//
f 1193// 1150// 1151//
f 1193// 1151// 1192//
f 1192// 1151// 1152//
f 1192// 1152// 1191//
f 1191// 1152// 1153//
f 1191// 1153// 1190//
f 1190// 1153// 1154//
f 1190// 1154// 1189//
f 1189// 1154// 1155//
f 1189// 1155// 1156//
f 1143// 1139// 1142//
f 1142// 1139// 1140//
f 1142// 1140// 1141//
f 1141// 1140// 1138//
f 1141// 1138// 1137//
f 1165// 1166// 1177//
f 1177// 1166// 1167//
f 1177// 1167// 1176//
f 1176// 1167// 1168//
f 1176// 1168// 1175//
f 1175// 1168// 1169//
f 1175// 1169// 1174//
f 1174// 1169// 1170//
f 1174// 1170// 1173//
f 1173// 1170// 1171//
f 1173// 1171// 1172//
f 1197// 1198// 1145//
f 1145// 1198// 1199//
f 1145// 1199// 1144//
f 1144// 1199// 1200//
f 1144// 1200// 1143//
f 1143// 1200// 1201//
f 1143// 1201// 1139//
f 1177// 1178// 1165//
f 1165// 1178// 1179//
f 1165// 1179// 1164//
f 1164// 1179// 1180//
f 1164// 1180// 1163//
f 1163// 1180// 1181//
f 1163// 1181// 1162//
f 1162// 1181// 1182//
f 1162// 1182// 1161//
f 1161// 1182// 1183//
f 1161// 1183// 1160//
f 1160// 1183// 1184//
f 1160// 1184// 1159//
f 1159// 1184// 1185//
f 1159// 1185// 1158//
f 1158// 1185// 1188//
f 1158// 1188// 1157//
f 1157// 1188// 1187//
f 1157// 1187// 1186//
f 1202// 1203// 566//
f 566// 1203// 109//
f 1204// 1202// 568//
f 568// 1202// 566//
f 1204// 568// 569//
f 1204// 569// 1205//
f 1205// 569// 563//
f 1205// 563// 1206//
f 1207// 1206// 562//
f 562// 1206// 563//
f 1208// 1207// 561//
f 561// 1207// 562//
f 573// 1209// 567//
f 567// 1209// 1208//
f 567// 1208// 561//
f 1210// 1209// 572//
f 572// 1209// 573//
f 574// 1211// 571//
f 571// 1211// 1210//
f 571// 1210// 572//
f 576// 1212// 575//
f 575// 1212// 1211//
f 575// 1211// 574//
f 1212// 576// 1213//
f 1213// 576// 582//
f 582// 581// 1213//
f 1213// 581// 580//
f 1213// 580// 1214//
f 1214// 580// 591//
f 1214// 591// 1215//
f 1215// 591// 590//
f 1215// 590// 1216//
f 1216// 590// 584//
f 1216// 584// 1217//
f 1217// 584// 583//
f 1217// 583// 1218//
f 1218// 583// 579//
f 1218// 579// 1219//
f 1220// 1219// 578//
f 578// 1219// 579//
f 1220// 578// 589//
f 1220// 589// 1221//
f 1221// 589// 588//
f 1221// 588// 1222//
f 1222// 588// 586//
f 1222// 586// 1223//
f 1223// 586// 585//
f 1223// 585// 1224//
f 585// 597// 1224//
f 1224// 597// 596//
f 1224// 596// 1225//
f 1225// 596// 595//
f 1225// 595// 1226//
f 1226// 595// 593//
f 1226// 593// 1227//
f 1227// 593// 592//
f 1227// 592// 1228//
f 109// 1203// 110//
f 110// 1203// 1228//
f 110// 1228// 592//
f 1205// 1206// 1228//
f 1203// 1202// 1228//
f 1228// 1202// 1204//
f 1228// 1204// 1205//
f 1209// 1210// 1208//
f 1208// 1210// 1211//
f 1208// 1211// 1207//
f 1219// 1220// 1218//
f 1218// 1220// 1221//
f 1218// 1221// 1217//
f 1217// 1221// 1222//
f 1217// 1222// 1216//
f 1216// 1222// 1223//
f 1216// 1223// 1215//
f 1215// 1223// 1224//
f 1215// 1224// 1214//
f 1206// 1207// 1228//
f 1228// 1207// 1211//
f 1228// 1211// 1227//
f 1211// 1212// 1227//
f 1227// 1212// 1213//
f 1227// 1213// 1226//
f 1226// 1213// 1214//
f 1226// 1214// 1225//
f 1225// 1214// 1224//
f 1229// 1230// 601//
f 601// 1230// 602//
f 599// 1231// 600//
f 600// 1231// 1229//
f 600// 1229// 601//
f 1232// 1231// 598//
f 598// 1231// 599//
f 604// 1233// 605//
f 605// 1233// 1232//
f 605// 1232// 598//
f 1234// 1233// 611//
f 611// 1233// 604//
f 607// 1235// 608//
f 608// 1235// 1234//
f 608// 1234// 611//
f 609// 1236// 606//
f 606// 1236// 1235//
f 606// 1235// 607//
f 628// 1237// 629//
f 629// 1237// 1236//
f 629// 1236// 609//
f 1238// 1237// 627//
f 627// 1237// 628//
f 614// 1239// 626//
f 626// 1239// 1238//
f 626// 1238// 627//
f 612// 1240// 613//
f 613// 1240// 1239//
f 613// 1239// 614//
f 602// 1230// 615//
f 615// 1230// 1240//
f 615// 1240// 612//
f 1240// 1230// 1229//
f 1229// 1231// 1240//
f 1240// 1231// 1232//
f 1240// 1232// 1239//
f 1237// 1238// 1236//
f 1236// 1238// 1239//
f 1236// 1239// 1235//
f 1235// 1239// 1232//
f 1235// 1232// 1234//
f 1234// 1232// 1233//
f 1241// 1242// 1243//
f 1243// 1242// 1244//
f 1243// 1244// 1245//
f 1245// 1244// 1246//
f 1245// 1246// 1247//
f 1247// 1246// 1248//
f 1247// 1248// 1249//
f 1249// 1248// 1250//
f 1249// 1250// 1251//
f 1251// 1250// 1252//
f 1251// 1252// 1253//
f 1252// 1254// 1253//
f 1253// 1254// 1255//
f 1253// 1255// 1256//
f 1256// 1255// 1257//
f 1256// 1257// 1258//
f 1258// 1257// 1259//
f 1258// 1259// 1260//
f 1260// 1259// 1261//
f 1260// 1261// 1262//
f 1262// 1261// 1263//
f 1262// 1263// 1264//
f 1264// 1263// 1265//
f 1264// 1265// 1266//
f 1266// 1265// 1267//
f 1266// 1267// 1268//
f 1268// 1267// 1269//
f 1268// 1269// 1270//
f 1270// 1269// 1271//
f 1270// 1271// 1272//
f 1272// 1271// 1273//
f 1272// 1273// 1274//
f 1274// 1273// 1275//
f 1274// 1275// 1241//
f 1241// 1275// 1276//
f 1241// 1276// 1242//
f 1247// 1249// 291//
f 291// 1249// 298//
f 1247// 291// 290//
f 1247// 290// 1245//
f 1245// 290// 289//
f 1245// 289// 1243//
f 1243// 289// 287//
f 1243// 287// 1241//
f 1241// 287// 286//
f 1241// 286// 1274//
f 1274// 286// 297//
f 1274// 297// 1272//
f 1272// 297// 296//
f 1272// 296// 1270//
f 1270// 296// 295//
f 1270// 295// 1268//
f 308// 1260// 309//
f 309// 1260// 1262//
f 309// 1262// 278//
f 278// 1262// 1264//
f 278// 1264// 275//
f 275// 1264// 1266//
f 275// 1266// 276//
f 276// 1266// 1268//
f 276// 1268// 295//
f 1260// 308// 307//
f 1260// 307// 1258//
f 1258// 307// 304//
f 1258// 304// 1256//
f 1256// 304// 303//
f 1256// 303// 1253//
f 1251// 1253// 301//
f 301// 1253// 303//
f 298// 1249// 299//
f 299// 1249// 1251//
f 299// 1251// 301//
f 1254// 1252// 1277//
f 1277// 1252// 1278//
f 1252// 1250// 1278//
f 1278// 1250// 1279//
f 1250// 1248// 1279//
f 1279// 1248// 1280//
f 1276// 1281// 1282//
f 1276// 1282// 1242//
f 1242// 1282// 1283//
f 1242// 1283// 1244//
f 1244// 1283// 1284//
f 1244// 1284// 1246//
f 1246// 1284// 1280//
f 1246// 1280// 1248//
f 1269// 1285// 1286//
f 1269// 1286// 1271//
f 1271// 1286// 1287//
f 1271// 1287// 1273//
f 1273// 1287// 1288//
f 1273// 1288// 1275//
f 1275// 1288// 1281//
f 1275// 1281// 1276//
f 1261// 1289// 1290//
f 1261// 1290// 1263//
f 1263// 1290// 1291//
f 1263// 1291// 1265//
f 1265// 1291// 1292//
f 1265// 1292// 1267//
f 1267// 1292// 1285//
f 1267// 1285// 1269//
f 1254// 1277// 1293//
f 1254// 1293// 1255//
f 1255// 1293// 1294//
f 1255// 1294// 1257//
f 1257// 1294// 1295//
f 1257// 1295// 1259//
f 1259// 1295// 1289//
f 1259// 1289// 1261//
usemtl 1
f 1278// 1279// 1277//
f 1277// 1279// 1280//
f 1277// 1280// 1293//
f 1293// 1280// 1284//
f 1293// 1284// 1283//
f 1283// 1282// 1293//
f 1293// 1282// 1281//
f 1293// 1281// 1288//
f 1285// 1289// 1286//
f 1286// 1289// 1295//
f 1288// 1287// 1293//
f 1293// 1287// 1286//
f 1293// 1286// 1294//
f 1294// 1286// 1295//
f 1292// 1291// 1285//
f 1285// 1291// 1290//
f 1285// 1290// 1289//
usemtl 3
f 1296// 1297// 1298//
f 1298// 1297// 1299//
f 1300// 1301// 1296//
f 1296// 1301// 1302//
f 1296// 1302// 1297//
f 1297// 1302// 1303//
f 1300// 1304// 1301//
f 1301// 1304// 1305//
f 1301// 1305// 1306//
f 1306// 1305// 1307//
f 1306// 1307// 1308//
f 1308// 1309// 1306//
f 1306// 1309// 1298//
f 1306// 1298// 1310//
f 1310// 1298// 1299//
f 1310// 1299// 1311//
f 285// 1306// 283//
f 283// 1306// 1310//
f 283// 1310// 281//
f 1301// 1306// 306//
f 306// 1306// 285//
f 288// 1302// 277//
f 277// 1302// 1301//
f 277// 1301// 306//
f 1303// 1302// 292//
f 292// 1302// 288//
f 1297// 1303// 293//
f 293// 1303// 292//
f 1299// 1297// 294//
f 294// 1297// 293//
f 1311// 1299// 279//
f 279// 1299// 294//
f 1310// 1311// 281//
f 281// 1311// 279//
f 1296// 1298// 1312//
f 1312// 1298// 1313//
f 1298// 1309// 1313//
f 1313// 1309// 1314//
f 1307// 1315// 1316//
f 1307// 1316// 1308//
f 1308// 1316// 1314//
f 1308// 1314// 1309//
f 1307// 1305// 1315//
f 1315// 1305// 1317//
f 1300// 1318// 1319//
f 1300// 1319// 1304//
f 1304// 1319// 1317//
f 1304// 1317// 1305//
f 1300// 1296// 1318//
f 1318// 1296// 1312//
usemtl 1
f 1315// 1317// 1316//
f 1316// 1317// 1319//
f 1316// 1319// 1314//
f 1314// 1319// 1318//
f 1314// 1318// 1313//
f 1313// 1318// 1312//
usemtl 3
f 1320// 1321// 1322//
f 1323// 1324// 1325//
f 1326// 1327// 1328//
f 1329// 1330// 1331//
f 1331// 1330// 1332//
f 1333// 1334// 1322//
f 1322// 1334// 1335//
f 1322// 1335// 1320//
f 1325// 1324// 1336//
f 1337// 1338// 1339//
f 1340// 1341// 1330//
f 1330// 1341// 1342//
f 1330// 1342// 1332//
f 1332// 1342// 1343//
f 1344// 1345// 1346//
f 1346// 1345// 1347//
f 1346// 1347// 1348//
f 1348// 1347// 1349//
f 1348// 1349// 1350//
f 1350// 1349// 1351//
f 1350// 1351// 1352//
f 1352// 1351// 1322//
f 1352// 1322// 1353//
f 1354// 1355// 1344//
f 1344// 1355// 1356//
f 1344// 1356// 1345//
f 1329// 1331// 1339//
f 1339// 1331// 1357//
f 1339// 1357// 1337//
f 1358// 1321// 1359//
f 1359// 1321// 1360//
f 1359// 1360// 1361//
f 1362// 1363// 1364//
f 1364// 1363// 1365//
f 1364// 1365// 1366//
f 1366// 1365// 1367//
f 1366// 1367// 1368//
f 1368// 1367// 1369//
f 1326// 1328// 1370//
f 1370// 1328// 1371//
f 1370// 1371// 1372//
f 1372// 1371// 1373//
f 1372// 1373// 1374//
f 1324// 1375// 1336//
f 1336// 1375// 1376//
f 1336// 1376// 1377//
f 1377// 1376// 1378//
f 1377// 1378// 1326//
f 1326// 1378// 1379//
f 1326// 1379// 1327//
f 1343// 1342// 1344//
f 1344// 1342// 1380//
f 1344// 1380// 1354//
f 1381// 1382// 1383//
f 1383// 1382// 1384//
f 1383// 1384// 1385//
f 1385// 1384// 1386//
f 1385// 1386// 1387//
f 1387// 1386// 1388//
f 1387// 1388// 1389//
f 1389// 1388// 1390//
f 1389// 1390// 1391//
f 1358// 1392// 1321//
f 1321// 1392// 1393//
f 1321// 1393// 1322//
f 1322// 1393// 1394//
f 1322// 1394// 1353//
f 1367// 1395// 1369//
f 1369// 1395// 1396//
f 1369// 1396// 1397//
f 1397// 1396// 1398//
f 1397// 1398// 1399//
f 1399// 1398// 1400//
f 1399// 1400// 1401//
f 1401// 1400// 1402//
f 1401// 1402// 1403//
f 1403// 1402// 1404//
f 1403// 1404// 1405//
f 1405// 1404// 1406//
f 1405// 1406// 1381//
f 1381// 1406// 1407//
f 1381// 1407// 1382//
f 1408// 1409// 1410//
f 1410// 1409// 1411//
f 1410// 1411// 1364//
f 1364// 1411// 1412//
f 1364// 1412// 1362//
f 1413// 1414// 1415//
f 1415// 1414// 1416//
f 1415// 1416// 1417//
f 1417// 1416// 1418//
f 1417// 1418// 1419//
f 1419// 1418// 1420//
f 1419// 1420// 1421//
f 1421// 1420// 1422//
f 1421// 1422// 1333//
f 1333// 1422// 1423//
f 1333// 1423// 1334//
f 1374// 1373// 1424//
f 1424// 1373// 1425//
f 1424// 1425// 1426//
f 1426// 1425// 1427//
f 1426// 1427// 1428//
f 1428// 1427// 1429//
f 1428// 1429// 1430//
f 1430// 1429// 1431//
f 1430// 1431// 1408//
f 1408// 1431// 1432//
f 1408// 1432// 1409//
f 1325// 1433// 1323//
f 1323// 1433// 1434//
f 1323// 1434// 1435//
f 1435// 1434// 1436//
f 1435// 1436// 1437//
f 1437// 1436// 1438//
f 1437// 1438// 1413//
f 1413// 1438// 1439//
f 1413// 1439// 1414//
f 1440// 1441// 1442//
f 1338// 1443// 1339//
f 1339// 1443// 1444//
f 1339// 1444// 1445//
f 1445// 1444// 1446//
f 1445// 1446// 1447//
f 1447// 1446// 1448//
f 1447// 1448// 1449//
f 1449// 1448// 1450//
f 1449// 1450// 1451//
f 1451// 1450// 1452//
f 1451// 1452// 1453//
f 1453// 1452// 1454//
f 1453// 1454// 1455//
f 1455// 1454// 1456//
f 1455// 1456// 1457//
f 1457// 1456// 1361//
f 1457// 1361// 1458//
f 1458// 1361// 1360//
f 1390// 1459// 1391//
f 1391// 1459// 1440//
f 1391// 1440// 1460//
f 1460// 1440// 1442//
f 1461// 1462// 1440//
f 1440// 1462// 1463//
f 1440// 1463// 1441//
f 1464// 1465// 1466//
f 1465// 1467// 1466//
f 1466// 1467// 1468//
f 1466// 1468// 1469//
f 1461// 1440// 1466//
f 1466// 1440// 1470//
f 1466// 1470// 1464//
f 1401// 274// 273//
f 1401// 273// 1399//
f 1399// 273// 272//
f 1399// 272// 1397//
f 1397// 272// 124//
f 1397// 124// 1369//
f 124// 126// 1369//
f 1369// 126// 128//
f 1369// 128// 1368//
f 1368// 128// 134//
f 1368// 134// 1366//
f 1366// 134// 133//
f 1366// 133// 1364//
f 1364// 133// 132//
f 1364// 132// 1410//
f 1410// 132// 131//
f 1410// 131// 1408//
f 1430// 1408// 130//
f 130// 1408// 131//
f 130// 129// 1430//
f 1430// 129// 138//
f 1430// 138// 1428//
f 1428// 138// 136//
f 1428// 136// 1426//
f 143// 1372// 141//
f 141// 1372// 1374//
f 141// 1374// 139//
f 139// 1374// 1424//
f 139// 1424// 135//
f 135// 1424// 1426//
f 135// 1426// 136//
f 1372// 143// 148//
f 1372// 148// 1370//
f 1370// 148// 150//
f 1370// 150// 1326//
f 1326// 150// 149//
f 1326// 149// 1377//
f 1377// 149// 147//
f 1377// 147// 1336//
f 1336// 147// 146//
f 1336// 146// 1325//
f 1325// 146// 152//
f 1325// 152// 1433//
f 1433// 152// 151//
f 1433// 151// 1434//
f 1434// 151// 145//
f 1434// 145// 1436//
f 1436// 145// 144//
f 1436// 144// 1438//
f 1438// 144// 122//
f 1438// 122// 1439//
f 122// 121// 1439//
f 1439// 121// 155//
f 1439// 155// 1414//
f 1414// 155// 154//
f 1414// 154// 1416//
f 1418// 1416// 162//
f 162// 1416// 154//
f 162// 161// 1418//
f 1418// 161// 160//
f 1418// 160// 1420//
f 1420// 160// 157//
f 1420// 157// 1422//
f 1422// 157// 156//
f 1422// 156// 1423//
f 1423// 156// 159//
f 1423// 159// 1334//
f 1334// 159// 163//
f 1334// 163// 1335//
f 1335// 163// 164//
f 1335// 164// 1320//
f 164// 165// 1320//
f 1320// 165// 166//
f 1320// 166// 1321//
f 1321// 166// 176//
f 1321// 176// 1360//
f 1360// 176// 175//
f 1360// 175// 1458//
f 175// 173// 1458//
f 1458// 173// 172//
f 1458// 172// 1457//
f 1457// 172// 170//
f 1457// 170// 1455//
f 211// 1329// 1339//
f 1455// 170// 168//
f 1455// 168// 1453//
f 1453// 168// 167//
f 1453// 167// 1451//
f 167// 182// 1451//
f 1451// 182// 181//
f 1451// 181// 1449//
f 1449// 181// 180//
f 1449// 180// 1447//
f 1447// 180// 178//
f 1447// 178// 1445//
f 1445// 178// 177//
f 1445// 177// 1339//
f 1339// 177// 210//
f 1339// 210// 211//
f 1330// 1329// 199//
f 199// 1329// 211//
f 1340// 1330// 188//
f 188// 1330// 199//
f 243// 1341// 226//
f 226// 1341// 1340//
f 226// 1340// 188//
f 119// 1342// 120//
f 120// 1342// 1341//
f 120// 1341// 243//
f 1342// 119// 118//
f 1342// 118// 1380//
f 1380// 118// 246//
f 1380// 246// 1354//
f 246// 221// 1354//
f 1354// 221// 220//
f 1354// 220// 1355//
f 1355// 220// 223//
f 1355// 223// 1356//
f 1356// 223// 229//
f 1356// 229// 1345//
f 1345// 229// 231//
f 1345// 231// 1347//
f 1347// 231// 235//
f 1347// 235// 1349//
f 235// 249// 1349//
f 1349// 249// 248//
f 1349// 248// 1351//
f 1351// 248// 252//
f 1351// 252// 1322//
f 237// 1415// 1417//
f 1322// 252// 251//
f 1322// 251// 1333//
f 1333// 251// 250//
f 1333// 250// 1421//
f 1421// 250// 247//
f 1421// 247// 1419//
f 1419// 247// 234//
f 1419// 234// 1417//
f 1417// 234// 236//
f 1417// 236// 237//
f 1415// 237// 233//
f 1415// 233// 1413//
f 1413// 233// 232//
f 1413// 232// 1437//
f 1437// 232// 230//
f 1437// 230// 1435//
f 230// 271// 1435//
f 1435// 271// 270//
f 1435// 270// 1323//
f 1323// 270// 269//
f 1323// 269// 1324//
f 1324// 269// 263//
f 1324// 263// 1375//
f 1375// 263// 262//
f 1375// 262// 1376//
f 1376// 262// 261//
f 1376// 261// 1378//
f 1378// 261// 259//
f 1378// 259// 1379//
f 1379// 259// 255//
f 1379// 255// 1327//
f 1327// 255// 258//
f 1327// 258// 1328//
f 1328// 258// 264//
f 1328// 264// 1371//
f 1371// 264// 266//
f 1371// 266// 1373//
f 1373// 266// 268//
f 1373// 268// 1425//
f 1425// 268// 267//
f 1425// 267// 1427//
f 242// 1362// 222//
f 222// 1362// 1412//
f 222// 1412// 260//
f 260// 1412// 1411//
f 260// 1411// 253//
f 253// 1411// 1409//
f 253// 1409// 254//
f 254// 1409// 1432//
f 254// 1432// 256//
f 256// 1432// 1431//
f 256// 1431// 257//
f 257// 1431// 1429//
f 257// 1429// 265//
f 265// 1429// 1427//
f 265// 1427// 267//
f 1363// 1362// 244//
f 244// 1362// 242//
f 1363// 244// 245//
f 1363// 245// 1365//
f 1365// 245// 239//
f 1365// 239// 1367//
f 1367// 239// 238//
f 1367// 238// 1395//
f 1395// 238// 241//
f 1395// 241// 1396//
f 1396// 241// 240//
f 1396// 240// 1398//
f 1398// 240// 228//
f 1398// 228// 1400//
f 1400// 228// 227//
f 1400// 227// 1402//
f 1404// 1402// 225//
f 225// 1402// 227//
f 225// 224// 1404//
f 1404// 224// 203//
f 1404// 203// 1406//
f 1406// 203// 202//
f 1406// 202// 1407//
f 1407// 202// 219//
f 1407// 219// 1382//
f 1382// 219// 218//
f 1382// 218// 1384//
f 1384// 218// 217//
f 1384// 217// 1386//
f 1386// 217// 216//
f 1386// 216// 1388//
f 1390// 1388// 215//
f 215// 1388// 216//
f 1390// 215// 195//
f 1390// 195// 1459//
f 1459// 195// 194//
f 1459// 194// 1440//
f 1440// 194// 193//
f 1440// 193// 1470//
f 1470// 193// 187//
f 1470// 187// 1464//
f 1464// 187// 186//
f 1464// 186// 1465//
f 1465// 186// 192//
f 1465// 192// 1467//
f 1467// 192// 201//
f 1467// 201// 1468//
f 1468// 201// 200//
f 1468// 200// 1469//
f 1469// 200// 198//
f 1469// 198// 1466//
f 1466// 198// 197//
f 1466// 197// 1461//
f 1461// 197// 209//
f 1461// 209// 1462//
f 1462// 209// 208//
f 1462// 208// 1463//
f 1463// 208// 207//
f 1463// 207// 1441//
f 1441// 207// 206//
f 1441// 206// 1442//
f 1442// 206// 205//
f 1442// 205// 1460//
f 1460// 205// 204//
f 1460// 204// 1391//
f 1391// 204// 214//
f 1391// 214// 1389//
f 1387// 1389// 213//
f 213// 1389// 214//
f 1387// 213// 212//
f 1387// 212// 1385//
f 1385// 212// 190//
f 1385// 190// 1383//
f 1383// 190// 189//
f 1383// 189// 1381//
f 274// 1401// 184//
f 184// 1401// 1403//
f 184// 1403// 185//
f 185// 1403// 1405//
f 185// 1405// 196//
f 196// 1405// 1381//
f 196// 1381// 189//
f 1343// 1471// 1472//
f 1343// 1472// 1332//
f 1332// 1472// 1473//
f 1332// 1473// 1331//
f 1331// 1473// 1474//
f 1331// 1474// 1357//
f 1357// 1474// 1475//
f 1357// 1475// 1337//
f 1337// 1475// 1476//
f 1337// 1476// 1338//
f 1338// 1476// 1477//
f 1338// 1477// 1443//
f 1443// 1477// 1478//
f 1443// 1478// 1444//
f 1444// 1478// 1479//
f 1444// 1479// 1446//
f 1446// 1479// 1480//
f 1446// 1480// 1448//
f 1448// 1480// 1481//
f 1448// 1481// 1450//
f 1450// 1481// 1482//
f 1450// 1482// 1452//
f 1452// 1482// 1483//
f 1452// 1483// 1454//
f 1454// 1483// 1484//
f 1454// 1484// 1456//
f 1456// 1484// 1485//
f 1456// 1485// 1361//
f 1361// 1485// 1486//
f 1361// 1486// 1359//
f 1359// 1486// 1487//
f 1359// 1487// 1358//
f 1358// 1487// 1488//
f 1358// 1488// 1392//
f 1392// 1488// 1489//
f 1392// 1489// 1393//
f 1393// 1489// 1490//
f 1393// 1490// 1394//
f 1394// 1490// 1491//
f 1394// 1491// 1353//
f 1353// 1491// 1492//
f 1353// 1492// 1352//
f 1352// 1492// 1493//
f 1352// 1493// 1350//
f 1350// 1493// 1494//
f 1350// 1494// 1348//
f 1348// 1494// 1495//
f 1348// 1495// 1346//
f 1346// 1495// 1496//
f 1346// 1496// 1344//
f 1344// 1496// 1471//
f 1344// 1471// 1343//
usemtl 1
f 1483// 1472// 1484//
f 1484// 1472// 1471//
f 1484// 1471// 1496//
f 1496// 1495// 1484//
f 1484// 1495// 1494//
f 1484// 1494// 1493//
f 1489// 1488// 1493//
f 1493// 1488// 1487//
f 1481// 1475// 1474//
f 1487// 1486// 1493//
f 1493// 1486// 1485//
f 1493// 1485// 1484//
f 1483// 1482// 1472//
f 1472// 1482// 1481//
f 1472// 1481// 1473//
f 1473// 1481// 1474//
f 1492// 1491// 1493//
f 1493// 1491// 1490//
f 1493// 1490// 1489//
f 1479// 1478// 1480//
f 1480// 1478// 1477//
f 1480// 1477// 1481//
f 1481// 1477// 1476//
f 1481// 1476// 1475//
usemtl 2
f 4// 1497// 5//
f 5// 1497// 1498//
f 5// 1498// 12//
f 12// 1498// 1499//
f 83// 12// 1500//
f 1500// 12// 1499//
f 1501// 1497// 58//
f 58// 1497// 4//
f 1497// 1501// 1498//
f 1498// 1501// 1500//
f 1498// 1500// 1499//
f 1500// 1501// 83//
f 83// 1501// 58//
